<?xml version="1.0" encoding="UTF-8" standalone="no"?>
<!-- Created with Inkscape (http://www.inkscape.org/) -->

<svg
   width="83.60099mm"
   height="75.139847mm"
   viewBox="0 0 83.60099 75.139847"
   version="1.1"
   id="svg5"
   inkscape:version="1.1.1 (1:1.1+202109281949+c3084ef5ed)"
   sodipodi:docname="nullsoft.svg"
   xmlns:inkscape="http://www.inkscape.org/namespaces/inkscape"
   xmlns:sodipodi="http://sodipodi.sourceforge.net/DTD/sodipodi-0.dtd"
   xmlns="http://www.w3.org/2000/svg"
   xmlns:svg="http://www.w3.org/2000/svg">
  <sodipodi:namedview
     id="namedview7"
     pagecolor="#ffffff"
     bordercolor="#666666"
     borderopacity="1.0"
     inkscape:pageshadow="2"
     inkscape:pageopacity="0.0"
     inkscape:pagecheckerboard="0"
     inkscape:document-units="mm"
     showgrid="false"
     inkscape:zoom="1.2810466"
     inkscape:cx="282.19114"
     inkscape:cy="184.61468"
     inkscape:window-width="1553"
     inkscape:window-height="972"
     inkscape:window-x="59"
     inkscape:window-y="39"
     inkscape:window-maximized="0"
     inkscape:current-layer="layer1" />
  <defs
     id="defs2" />
  <g
     inkscape:label="Layer 1"
     inkscape:groupmode="layer"
     id="layer1"
     transform="translate(-1.2919564,-1.1747653)">
    <path
       style="fill:#6f54a7;stroke-width:0.108878"
       d="m 24.897096,66.356911 c 12.797398,-0.01136 33.738594,-0.01136 46.535992,0 12.797396,0.01136 2.326799,0.02066 -23.267996,0.02066 -25.594796,0 -36.065393,-0.0093 -23.267996,-0.02066 z"
       id="path898" />
    <rect
       style="opacity:0.98;fill:#000000;stroke-width:0.314044;stroke-dasharray:7.53708, 0.314044;paint-order:stroke fill markers"
       id="rect2219"
       width="50.714787"
       height="12.151487"
       x="21.229599"
       y="35.682232" />
    <g
       id="g2395"
       transform="matrix(1.3559589,0,0,1,-13.578684,0)">
      <path
         d="m 56.366734,47.415929 c -0.79807,-0.430147 -1.445688,-1.121469 -1.941225,-2.070618 -0.495433,-0.947838 -0.743201,-2.135148 -0.743201,-3.562367 0,-1.988464 0.489936,-3.535565 1.472255,-4.642614 0.982319,-1.107049 2.34942,-1.659553 4.103038,-1.659553 1.358244,0 2.480327,0.311721 3.368385,0.934145 l -0.01052,-0.04603 0.05384,-0.321774 h 0.07635 l 0.260086,0.18616 0.0056,-0.135467 0.01245,-0.245299 -0.03584,-0.346682 -0.06485,-0.363723 -0.11859,-0.685351 -0.118589,-0.523663 -0.02942,-0.144646 -0.0056,-0.498609 0.01159,-0.685351 -0.01695,-0.541434 -0.08876,-0.346681 0.01159,-1.226639 -0.0064,-0.566343 -0.06485,-0.321046 -0.142002,-0.337941 -0.295611,-0.600574 -0.08266,-1.488689 -0.721723,-0.642526 -0.803465,0.0335 -0.318619,-0.549883 -0.243084,-0.26176 -0.318618,-0.321625 -0.780052,-0.168971 -0.176918,0.313033 -0.331445,-0.253892 -1.182243,1.218191 -0.791962,0.02492 -0.419293,-0.532694 -0.638455,0.126873 -0.455021,0.820236 -0.2722,0.989352 -1.099891,0.228256 -1.105353,0.659704 -2.647679,0.947109 -1.139998,-0.355858 -2.134226,-0.194025 -0.342844,-0.447917 -0.09518,-0.0421 L 45.69931,28.63819 45.480044,28.519036 44.87742,29.23017 h -2.789682 l -0.745137,-0.169116 -0.974887,-0.499191 -0.803974,0.194606 -1.949368,-1.075439 -4.166963,0.40582 -0.649959,-0.397226 -0.537781,-0.769545 -0.189338,-1.192554 -0.112687,-4.009119 -0.2836,-1.319428 0.08866,-0.338815 -0.212751,-0.736042 0.2836,-2.968493 0.348443,-0.397809 V 14.494917 L 30.278906,9.0565381 30.089974,8.4980607 29.770543,8.041549 29.209247,6.8996861 28.541373,5.7584067 H 27.778727 L 27.74931,5.6736331 27.276372,5.0816549 26.555666,5.0059124 26.531744,4.9211388 26.449392,4.7271022 26.336808,4.5581153 26.27797,4.5246278 24.421847,3.3148834 23.807313,2.6387118 l -0.04693,-0.051286 -0.271689,-0.084906 -0.378269,-0.1519135 -0.02392,0.050693 -0.460621,0.5326926 -0.0114,0.084906 0.07675,0.2617698 -0.02952,0.034213 -0.142005,0.00857 c -0.0051,0 -0.02525,0.06569 -0.02799,0.072249 l -0.051,0.1348731 c -0.017,0.044134 -0.03033,0.090179 -0.04642,0.1354664 -0.01567,0.044134 -0.03685,0.1013855 -0.01528,0.1485845 a 0.16918268,0.24209412 0 0 0 0.0626,0.056823 c 0.01833,0.010218 0.03767,0.00593 0.05741,0.00626 0.0285,0 0.05293,0.010547 0.08042,0.019117 0.02626,0.00857 0.05426,0.00857 0.07777,0.027687 0.03532,0.029664 0.0625,0.091465 0.08632,0.1369166 0.03461,0.064965 0.04886,0.1418606 0.08876,0.2017493 0.03125,0.047331 0.07217,0.080258 0.110344,0.1145037 0.0285,0.026368 0.05741,0.043408 0.08683,0.063811 0.03675,0.02505 0.05843,0.052011 0.09935,0.046045 0.03441,-0.00593 0.07309,0.00923 0.101998,-0.027027 0.01751,-0.021095 0.0225,-0.050693 0.04174,-0.069777 0.01934,-0.019776 0.03278,-0.019776 0.05619,-0.018787 0.06759,0.00248 0.135082,0.029005 0.197177,0.066415 0.03084,0.018787 0.05008,0.049968 0.07451,0.082137 0.03074,0.040805 0.06708,0.075017 0.100166,0.1124601 0.08276,0.092783 0.176513,0.1723159 0.255097,0.272383 0.05243,0.067008 0.113501,0.1177008 0.165519,0.1841156 0.06474,0.08217 0.123579,0.173041 0.181092,0.2656921 0.03451,0.054615 0.0735,0.1045827 0.100674,0.1670752 0.02891,0.068458 0.0225,0.1270285 -0.0046,0.195322 -0.017,0.043409 -0.04326,0.073139 -0.05935,0.1178327 -0.01191,0.032631 -0.02799,0.038761 -0.04784,0.059131 -0.01607,0.017799 -0.02932,0.045452 -0.04275,0.067008 -0.02239,0.036421 -0.05232,0.090311 -0.085,0.1073514 -0.02575,0.013843 -0.05833,5.834e-4 -0.08643,0.00989 a 0.5147755,0.73662452 0 0 0 -0.128669,0.07093 c -0.0395,0.031642 -0.06851,0.086224 -0.103423,0.1270285 -0.04683,0.054615 -0.103016,0.096738 -0.156254,0.1367848 -0.04744,0.035531 -0.09009,0.079533 -0.135183,0.1197444 -0.03634,0.032301 -0.07258,0.05857 -0.105256,0.098024 -0.02616,0.031312 -0.04041,0.07037 -0.07584,0.078215 a 0.54052953,0.7734776 0 0 0 -0.10434,0.031642 0.44769282,0.64063173 0 0 0 -0.115434,0.08741 1.5831102,2.2653716 0 0 0 -0.345084,0.480253 c -0.01934,0.036849 -0.03268,0.079533 -0.05344,0.1156573 -0.03441,0.061174 -0.08642,0.092783 -0.12592,0.1461125 -0.07675,0.1019788 -0.156254,0.198684 -0.228427,0.3072219 -0.06209,0.093211 -0.130094,0.1794682 -0.187099,0.2795353 -0.01476,0.025709 -0.03125,0.048056 -0.04642,0.073699 -0.02341,0.040772 -0.04326,0.046606 -0.0795,0.059131 -0.04051,0.013843 -0.07961,0.032301 -0.121338,0.03685 -0.03461,0.00461 -0.06719,-0.00461 -0.101185,0.011206 -0.04041,0.017139 -0.07217,0.049968 -0.108003,0.080851 -0.02026,0.017799 -0.04235,0.030323 -0.06301,0.046045 -0.02199,0.017139 -0.02982,0.014502 -0.05599,0.00923 -0.05059,-0.011207 -0.101182,-0.028346 -0.152691,-0.026368 -0.08449,0.00396 -0.132333,0.097892 -0.1815,0.1841157 -0.02209,0.039486 -0.02901,0.078214 -0.04418,0.1229414 -0.04601,0.1408719 -0.135185,0.2132525 -0.23535,0.2538924 a 0.82107555,1.1749285 0 0 0 -0.144343,0.079665 7.7461648,11.084473 0 0 0 -0.150759,0.1111418 c -0.03492,0.027686 -0.0625,0.060449 -0.10159,0.08217 -0.03492,0.019117 -0.07126,0.018458 -0.10434,0.044134 -0.017,0.013843 -0.03033,0.032301 -0.04642,0.047331 -0.04184,0.040211 -0.08591,0.078214 -0.128262,0.115064 -0.04133,0.036256 -0.08368,0.06714 -0.12592,0.098024 -0.04051,0.030323 -0.0625,0.093376 -0.103016,0.1197443 -0.04591,0.029664 -0.08866,0.037443 -0.129585,0.082137 a 0.25143276,0.3597909 0 0 1 -0.142919,0.065261 c -0.06026,0.00461 -0.103423,0.048649 -0.15819,0.077489 a 7.8813481,11.277915 0 0 1 -0.206847,0.1059013 1.214919,1.7385038 0 0 0 -0.421429,0.36387 0.45787229,0.65519815 0 0 0 -0.137932,0.307057 c -0.01058,0.05274 -0.01933,0.10399 -0.03726,0.151914 a 1.0503171,1.5029646 0 0 0 -0.04876,0.152078 c -0.017,0.06381 -0.06108,0.103858 -0.08408,0.165032 -0.02759,0.07239 -0.05843,0.152655 -0.06851,0.232771 a 4.2821951,6.1276613 0 0 0 -0.05425,0.558477 c -0.01017,0.184264 0.0046,0.368385 0.01607,0.551194 0.0051,0.08099 0.01884,0.176255 0.0073,0.255933 a 0.25652248,0.36707411 0 0 0 -0.0013,0.186742 0.19117033,0.27355762 0 0 0 0.04092,0.09614 c 0.02484,0.04078 0.04591,0.08551 0.068,0.130226 a 0.37419709,0.53546207 0 0 1 0.0625,0.240636 c 0.0074,0.0705 5.09e-4,0.145374 0.02392,0.209175 a 0.26201939,0.37493999 0 0 0 0.131011,0.180915 c 0.0621,0.03293 0.128261,0.04414 0.193103,0.05987 0.13559,0.03293 0.27851,0.02564 0.414101,-0.0066 0.08653,-0.0204 0.176105,-0.01516 0.264361,-0.01516 0.04642,0 0.09284,0.0026 0.139255,0 0.03359,-0.0019 0.06851,0.0034 0.101082,-0.0099 0.03726,-0.01444 0.06301,-0.05579 0.0906,-0.09206 a 0.38610707,0.55250479 0 0 1 0.260187,-0.139402 0.56343334,0.80625205 0 0 1 0.138339,0.0262 c 0.03542,0.01253 0.06983,0.04414 0.106681,0.04676 0.02239,0.0015 0.04174,-0.01384 0.06342,-0.0204 0.07075,-0.02169 0.157679,5.82e-4 0.227511,0.0204 0.0565,0.01572 0.112993,0.0402 0.171015,0.04414 0.0395,0.0039 0.07991,0 0.119913,0 0.04683,0 0.0851,-0.03233 0.131011,-0.04151 0.04968,-0.0092 0.102507,5.83e-4 0.153099,5.83e-4 0.04734,0 0.09467,-0.0026 0.142005,0 0.04275,0.0026 0.08235,0.01908 0.124596,0.02825 0.03817,0.0086 0.07859,0.0026 0.117675,0.0026 a 0.25601351,0.36634579 0 0 0 0.165518,-0.06307 c 0.04784,-0.04661 0.09559,-0.09541 0.139664,-0.150035 a 0.27810295,0.39795494 0 0 1 0.186283,-0.09133 c 0.04957,0 0.08999,-0.0087 0.133249,0.03204 0.04683,0.04355 0.0906,0.09031 0.135081,0.136923 0.0285,0.03029 0.05334,0.06453 0.08276,0.09279 a 1.0089885,1.4438248 0 0 1 0.101183,0.10721 c 0.04275,0.0539 0.08866,0.09803 0.133351,0.150035 0.04683,0.05521 0.08999,0.116385 0.13549,0.173631 a 0.30019238,0.42956412 0 0 0 0.07635,0.07167 c 0.017,0.01048 0.03909,0.01384 0.05558,0.02564 0.02443,0.01836 0.04184,0.05331 0.06525,0.07371 0.07686,0.06846 0.164094,0.10983 0.231685,0.197959 0.03451,0.04472 0.0795,0.07094 0.111771,0.118426 a 1.0220182,1.4624699 0 0 1 0.07675,0.119589 0.32543746,0.46568885 0 0 1 0.06708,0.304585 c 0,0.0606 0.0027,0.123087 -0.0014,0.183536 -0.0041,0.05462 -0.01741,0.09993 -0.02708,0.152655 -0.02392,0.126874 -0.08001,0.234812 -0.08876,0.367657 -0.0073,0.108521 -0.01607,0.214999 -0.02015,0.324249 -0.0051,0.112453 -0.03084,0.226215 -0.02118,0.340126 0.0092,0.111725 0.09009,0.155862 0.120932,0.252001 0.0285,0.0906 0.03715,0.195918 0.06474,0.287979 0.01017,0.0335 0.02901,0.06045 0.04418,0.08944 0.03909,0.07633 0.09009,0.167803 0.101998,0.263068 0.01202,0.09934 -0.0068,0.202036 -0.02158,0.299341 a 1.1307349,1.6180394 0 0 0 -0.0088,0.70385 c 0.01528,0.09658 0.0285,0.204512 0.0285,0.303857 0,0.05724 0.0014,0.112453 -0.0092,0.167659 -0.0082,0.04472 -0.01792,0.08885 -0.02443,0.134302 -0.01558,0.10983 -0.01049,0.226216 -0.05049,0.32629 -0.0285,0.07152 -0.02616,0.153822 -0.04459,0.230731 -0.01833,0.07502 -0.01659,0.157899 -0.04184,0.229568 -0.05375,0.151926 -0.0037,0.338815 0.05792,0.469621 0.03868,0.0823 0.068,0.1646 0.09925,0.253893 0.01109,0.03102 0.02667,0.05928 0.03593,0.09148 0.01466,0.05331 0.0086,0.115803 0.0086,0.171739 v 0.336776 c 5.09e-4,0.05244 0.01751,0.0973 0.03176,0.144063 0.01373,0.04268 0.017,0.08609 0.03217,0.128914 0.01476,0.04268 0.02118,0.09264 0.03868,0.133429 a 0.48729093,0.69729514 0 0 1 0.04408,0.117843 0.25743864,0.3683851 0 0 1 0.02443,0.126873 c 0.0041,0.06118 0.02291,0.111142 0.03298,0.169699 0.02443,0.138819 0.0092,0.303857 0.0064,0.446607 -9.16e-4,0.06322 0,0.12629 0,0.189363 0.0019,0.250105 0.0566,0.50531 0.02484,0.755269 -0.01934,0.150619 -0.02748,0.303857 -0.0509,0.453016 -0.01017,0.06395 -0.0112,0.123087 -0.01528,0.186888 -0.0027,0.04414 -0.01558,0.10983 -0.03817,0.141439 -0.01466,0.0204 -0.02942,0.02113 -0.04225,0.04661 -0.01528,0.03029 -0.02525,0.06526 -0.04051,0.09614 a 0.50612294,0.72424306 0 0 0 -0.05782,0.167804 c -0.03319,0.129642 -0.02952,0.267004 -0.06026,0.397227 -0.017,0.07298 -0.02026,0.14275 -0.0285,0.219079 -0.01283,0.117698 -0.05242,0.225488 -0.0625,0.343914 -0.0046,0.0539 -0.0051,0.102694 -0.01974,0.153238 -0.01243,0.04282 -0.02952,0.08157 -0.04184,0.123815 -0.01476,0.05127 -0.02535,0.105753 -0.04459,0.154406 -0.01384,0.03496 -0.03542,0.05535 -0.051,0.08623 -0.03634,0.07298 -0.0285,0.206552 -0.0285,0.291329 a 0.2127508,0.30443845 0 0 1 -0.02901,0.145374 c -0.01324,0.03423 -0.03074,0.09221 -0.05517,0.112599 -0.02443,0.0204 -0.04683,0.03612 -0.06851,0.06249 -0.06708,0.08085 -0.09742,0.220971 -0.137831,0.328764 -0.04734,0.125707 -0.0074,0.265838 -0.03217,0.397373 -0.01333,0.07239 -0.0681,0.163726 -0.102099,0.222283 -0.03074,0.05259 -0.05334,0.11187 -0.08143,0.167075 -0.03023,0.05987 -0.06841,0.107793 -0.09141,0.174943 a 0.71704144,1.0260596 0 0 0 -0.06383,0.36183 c -0.0074,0.132846 -0.0056,0.260448 -0.06301,0.371007 A 1.9337928,2.7671853 0 0 1 22.8592,28.598303 c -0.06291,0.103278 -0.122662,0.208447 -0.189846,0.307789 -0.01607,0.02301 -0.03033,0.04865 -0.04683,0.07166 -0.02952,0.04224 -0.06892,0.0638 -0.09375,0.111871 a 0.64130623,0.91768527 0 0 0 -0.07584,0.189362 0.40361575,0.57755908 0 0 1 -0.06718,0.176984 0.79980049,1.1444846 0 0 0 -0.100674,0.199995 c -0.02525,0.06511 -0.03807,0.128186 -0.05283,0.198688 a 1.0691491,1.5299124 0 0 1 -0.06617,0.240055 c -0.01292,0.03816 -0.03125,0.06846 -0.04683,0.104586 -0.03634,0.08478 -0.05527,0.176983 -0.08235,0.268313 -0.02158,0.07239 -0.04917,0.153967 -0.05334,0.232916 a 1.0338263,1.4793669 0 0 1 -0.03675,0.307206 3.4134796,4.8845619 0 0 1 -0.05375,0.240639 c -0.01058,0.04341 -0.0097,0.0874 -0.0281,0.125706 a 0.13426713,0.19213126 0 0 0 -0.03033,0.10517 c -0.0013,0.04472 0,0.09075 0,0.135466 0,0.05666 10e-4,0.114491 -4.07e-4,0.171884 -0.001,0.04588 -0.01792,0.0807 -0.02118,0.126145 -0.0027,0.04545 -5.08e-4,0.09148 -5.08e-4,0.136924 0,0.07021 -9.17e-4,0.139982 0.0029,0.210338 0.0051,0.09352 0.02107,0.183536 0.02158,0.278221 4.07e-4,0.1646 -0.006,0.333571 0.01058,0.496715 0.0059,0.06118 0.01425,0.12367 0.01607,0.186159 0.0018,0.04865 0.0046,0.09658 0.0051,0.145954 0,0.04414 0.01974,0.06846 0.03715,0.104003 0.0225,0.0453 0.03949,0.09468 0.05884,0.142022 0.01476,0.03554 0.03817,0.06701 0.04683,0.105898 0.01202,0.05535 0.0051,0.12367 0.0051,0.181498 v 0.601303 c 0,0.113617 -0.01466,0.255788 0.03593,0.351779 0.01283,0.02564 0.02667,0.03889 0.03441,0.06977 0.0051,0.01836 0.0069,0.03875 0.0115,0.05783 0.01017,0.03948 0.01934,0.0823 0.03125,0.121046 0.01974,0.06453 0.05751,0.115074 0.07635,0.180916 0.01374,0.04865 0.02118,0.102694 0.02891,0.15455 0.01058,0.07036 0.01659,0.144791 0.02118,0.21704 v 0.02432 h 2.436251 v 7.261804 a 3.4516526,4.9391862 0 0 1 -0.282277,1.975936 c 0.0041,0.01049 0.0069,0.0217 0.0111,0.0335 0.03624,0.09279 0.08449,0.167077 0.091,0.278948 0.0064,0.109248 0.03308,0.214417 0.03532,0.32352 0.0023,0.121047 0.0069,0.250542 -0.0086,0.369696 -0.01292,0.101382 -0.04275,0.196647 -0.06118,0.296718 -0.01792,0.102548 -0.02901,0.203202 -0.01017,0.305895 a 0.20226594,0.28943504 0 0 0 0.04051,0.11828 c 0.01792,0.03219 0.02667,0.07036 0.04225,0.105315 0.023,-0.01908 0.04418,-0.06905 0.06352,-0.09876 0.04133,-0.06307 0.08551,-0.103858 0.147601,-0.103858 0.133249,-0.0015 0.257744,0.06905 0.391502,0.05652 0.07726,-0.0092 0.137015,-0.07691 0.198194,-0.13474 a 1.0267007,1.4691704 0 0 0 0.07635,-0.08099 V 35.68223 h 3.333775 v 9.185593 h 5.230622 v 2.993402 h -5.131671 a 0.51182345,0.73240024 0 0 1 0.0229,0.115802 c 0.01292,0.114491 0.02443,0.230152 0.03868,0.34406 0.02392,0.182082 0.02443,0.36955 0.02443,0.554981 0,0.10007 0.0022,0.202036 -0.0029,0.302106 a 0.45827945,0.65578082 0 0 0 0.0097,0.220972 c 0.01243,0.06307 0.034,0.122358 0.05701,0.178295 0.01466,0.03612 0.0285,0.06905 0.02942,0.113037 0.01833,-0.0092 0.03583,-0.0204 0.05517,-0.02825 0.02667,-0.01048 0.05191,-0.0079 0.0794,-0.01312 0.05528,-0.01048 0.09202,-0.06453 0.124191,-0.124398 0.04876,-0.09264 0.06342,-0.210484 0.091,-0.315654 0.03176,-0.122358 0.08876,-0.231607 0.143938,-0.335464 0.04642,-0.08885 0.151675,-0.118426 0.223847,-0.08099 0.07441,0.03889 0.04733,0.253309 0.04683,0.340854 -4.07e-4,0.126874 -0.04133,0.243988 -0.04225,0.368968 0,0.103858 0.02118,0.209175 0.03217,0.31245 0.01017,0.09599 -0.0097,0.201891 -0.0097,0.299196 0,0.249376 -0.0041,0.501231 -0.0041,0.750608 v 0.280112 c 0,0.0874 -0.0023,0.165767 0.01558,0.248065 0.02983,0.14013 0.05466,0.267004 0.06026,0.412376 0.03899,-0.05127 0.05833,-0.142751 0.08357,-0.209175 0.04235,-0.114491 0.05385,-0.213108 0.05385,-0.34202 0,-0.123815 0.0018,-0.248065 0.0018,-0.371007 0,-0.06439 0.0068,-0.194024 0.06382,-0.210484 0.02301,-0.0052 0.04275,0.01384 0.0621,0.02696 0.02026,0.01193 0.03909,0.01516 0.05558,0.03758 0.01476,0.0204 0.02535,0.04734 0.03634,0.07167 0.05242,0.115802 0.06433,0.250544 0.06851,0.386739 0.0041,0.126873 0.0115,0.252 0.0225,0.378873 a 0.29276139,0.4189306 0 0 0 0.03726,0.167075 c 0.02067,0.04996 0.03766,0.10925 0.06209,0.155279 0.02239,-0.0606 0.03807,-0.122358 0.06657,-0.178295 a 0.45970459,0.6578201 0 0 0 0.091,-0.272393 c 0.01934,-0.184702 -0.08357,-0.368967 -0.01191,-0.541871 0.02901,-0.0705 0.08093,-0.106627 0.136507,-0.07181 0.07085,0.04341 0.105256,0.145374 0.141087,0.237432 0.03593,0.09148 0.04968,0.196647 0.05517,0.30065 0.0042,0.09541 0.01059,0.201891 -0.0032,0.295405 -0.0097,0.06307 -0.03308,0.110414 -0.05334,0.168387 a 1.1142441,1.5944418 0 0 0 -0.06892,0.246608 c -0.02301,0.105315 -0.0511,0.204512 -0.05517,0.315802 -0.0041,0.125562 -0.0064,0.268312 0.01517,0.391837 0.02199,0.124398 0.04499,0.249377 0.06209,0.375086 0.01425,0.105169 0.05924,0.197959 0.07482,0.303128 0.01334,0.08755 0.02341,0.180915 0.02535,0.269769 a 0.36768223,0.52613954 0 0 0 0.159512,-0.336776 c 0.01099,-0.08099 -0.0014,-0.167078 0.02433,-0.243988 0.01975,-0.05928 0.06892,-0.101382 0.108004,-0.132262 0.05476,-0.04224 0.139255,-0.0015 0.196769,0.0118 0.06291,0.01384 0.114926,0.10007 0.145261,0.176254 0.04683,0.117114 0.0455,0.257245 0.05242,0.388196 0.0032,0.05521 0.0013,0.113037 0.0081,0.167075 0.0079,0.06438 0.02952,0.120901 0.04102,0.183539 a 0.71643066,1.0251855 0 0 0 0.02942,0.126728 c 0.01517,0.05011 0.017,0.105315 0.02525,0.158044 0.02759,0.164455 0.08917,0.311138 0.114926,0.478216 a 0.38478375,0.55061116 0 0 0 0.06026,0.210484 0.15350632,0.21966181 0 0 0 0.05375,0.07822 c 0.01883,0.01516 0.03451,0.02169 0.04642,0.04997 a 0.24176228,0.34595279 0 0 1 0.01792,-0.06846 c 0.01751,-0.04996 0.03308,-0.09395 0.04642,-0.146683 0.01293,-0.0539 0.017,-0.102549 0.02484,-0.159065 0.0082,-0.05535 0.02443,-0.08885 0.06433,-0.105315 0.02443,-0.0092 0.06067,-0.01895 0.08367,0 0.01191,0.01193 0.02026,0.03627 0.03125,0.05127 0.01527,0.0204 0.03359,0.04078 0.04367,0.06715 0.02026,0.05258 0.03766,0.118426 0.05151,0.174943 0.01608,0.06453 0.01099,0.137506 0.01099,0.205239 0,0.08085 -0.0032,0.163143 0,0.243988 0.0033,0.06846 0.02158,0.130951 0.0281,0.198104 0.0059,0.06176 0.0068,0.122358 0.0115,0.184702 0.01323,0.153967 0.05975,0.299341 0.05975,0.45593 a 0.28909677,0.4136867 0 0 1 -0.01619,0.160522 c -0.01374,0.04997 -0.03308,0.09993 -0.03491,0.156443 -0.0022,0.06905 0.02168,0.149306 0.0065,0.217039 0.01934,-0.05244 0.04733,-0.08478 0.07859,-0.120901 0.01934,-0.02185 0.03125,-0.05142 0.04784,-0.07837 0.05741,-0.09148 0.03665,-0.207864 0.04174,-0.320897 0.0073,-0.160523 0.0795,-0.29803 0.124597,-0.443402 0.01608,-0.05127 0.01883,-0.113182 0.0225,-0.168387 0.006,-0.08623 0.0226,-0.171011 0.02993,-0.257245 0.0064,-0.07283 0.0097,-0.146683 0.0064,-0.220972 -0.0027,-0.07037 -0.02066,-0.137517 -0.03542,-0.204523 a 0.47538097,0.68025241 0 0 1 -0.02158,-0.209174 c -4.08e-4,-0.06322 -0.006,-0.150618 0.01659,-0.206552 0.02016,-0.05258 0.06749,-0.06322 0.105256,-0.0539 a 0.1176746,0.16838796 0 0 1 0.08917,0.09264 c 0.01191,0.02973 0.03034,0.04603 0.04174,0.07968 0.02484,0.07575 0.07227,0.151198 0.08143,0.2335 0.01018,0.08885 0.03166,0.177566 0.03125,0.267004 a 0.84082372,1.2031874 0 0 1 -0.01059,0.206551 c -0.0073,0.05535 -0.01883,0.111871 -0.02026,0.168387 a 0.27627065,0.39533299 0 0 0 0.0511,0.264381 c 0.04784,0.105314 0.107495,0.233499 0.123578,0.35979 0.01334,0.104003 5.09e-4,0.210484 0.01843,0.315802 0.0115,0.07036 0.0395,0.145374 0.03125,0.217039 0.03084,-0.01312 0.06617,-0.03612 0.0965,-0.0539 a 0.17559576,0.25127096 0 0 0 0.09151,-0.110558 c 0.02575,-0.06904 0.02392,-0.161687 0.02209,-0.238889 -0.0023,-0.09585 -0.03359,-0.170866 -0.06209,-0.254476 -0.03176,-0.09133 -0.074,-0.192715 -0.08042,-0.295261 -0.0073,-0.113182 -0.01832,-0.259864 0.0092,-0.369696 0.02158,-0.08609 0.04326,-0.14275 0.107088,-0.07822 0.04459,0.04341 0.0795,0.08215 0.133351,0.101237 0.04499,0.01516 0.115333,0.04341 0.136404,-0.0335 0.02901,-0.102694 0.0014,-0.194023 0.0029,-0.299341 a 0.10484848,0.15003424 0 0 1 0.113501,-0.15251 c 0.118591,0.0066 0.142106,0.218352 0.212446,0.311138 0.02748,0.03612 0.05599,0.04603 0.07767,0.09264 0.0225,0.04865 0.04459,0.09876 0.05924,0.153967 0.05242,0.196647 0.119507,0.384117 0.144854,0.593291 0.0092,0.07429 0.01242,0.150618 0.03257,0.219663 0.02026,0.06846 0.04184,0.136194 0.06484,0.201891 0.03492,0.102694 0.08551,0.179603 0.129177,0.272393 0.02525,0.05258 0.05924,0.09541 0.08368,0.146682 a 0.87706262,1.2550439 0 0 1 0.06016,0.152655 0.40310678,0.57683076 0 0 1 0.03176,0.359791 c -0.02158,0.124253 -0.01384,0.242676 -0.01202,0.369551 0.0018,0.114494 -0.0059,0.230151 -0.0018,0.344059 0.0097,0.273705 0.06067,0.528179 0.101591,0.792559 0.017,0.113182 0.05293,0.218497 0.06942,0.32891 0.01974,0.129642 0.02158,0.26176 0.02158,0.39475 0,0.132846 0.01109,0.263069 0.01109,0.397227 0,0.03744 -0.0037,0.07953 0,0.118426 0.0027,0.0322 0.02015,0.06176 0.01833,0.09541 -0.0013,0.02301 -0.01009,0.0421 -0.0096,0.06846 9.16e-4,0.07152 -0.0042,0.16023 0.01373,0.230151 0.01792,0.06963 0.05191,0.128186 0.06617,0.20058 0.01242,0.06176 0.02341,0.118426 0.04235,0.177711 0.03033,0.09527 0.05517,0.205095 0.07401,0.305749 0.0064,0.03496 0.0022,0.06846 0.0059,0.102549 0.0051,0.04996 0.02392,0.09745 0.03502,0.146682 0.02341,0.101383 0.03492,0.209176 0.06749,0.307206 0.01803,0.0539 0.03634,0.10925 0.05701,0.161686 0.01425,0.03642 0.0281,0.06322 0.03359,0.105314 0.01792,0.134887 0.01792,0.277637 0.01792,0.413687 0,0.344059 -0.01191,0.686079 -0.01324,1.028827 -5.09e-4,0.141439 0,0.285501 0.005,0.424903 0.0018,0.05259 0.0022,0.105315 0.0022,0.157899 5.09e-4,0.04865 0.0065,0.106481 0.001,0.155279 -0.0042,0.04006 -0.01292,0.06905 -0.0088,0.111725 0.0041,0.04282 0.01283,0.08361 0.01373,0.125707 0.0014,0.09002 0.0064,0.180915 0.0041,0.269624 -0.0017,0.05929 -0.0114,0.115803 -0.0173,0.173631 -0.01202,0.121046 -0.01528,0.242821 -0.01985,0.363724 a 7.0996671,10.159359 0 0 0 -0.0088,0.52949 c 0,0.05929 -0.0022,0.121046 0.0027,0.180915 0.0046,0.0606 0.017,0.122358 0.02168,0.183536 0.0046,0.06118 -0.0014,0.127018 0,0.188782 0.0022,0.121047 0.02433,0.236121 0.01099,0.35848 a 2.9028777,4.1539097 0 0 0 -0.03085,0.478216 c -0.0046,0.150618 0.01893,0.301962 0.0111,0.452579 -0.0073,0.142751 -0.01659,0.281424 -0.01292,0.424903 0.0014,0.08885 -0.01009,0.179603 -0.01648,0.268312 -0.0092,0.138819 -0.02026,0.284045 -0.04784,0.419077 a 0.25652248,0.36707411 0 0 1 -0.05375,0.159066 c -0.04733,0.07429 -0.04,0.161834 -0.04275,0.258552 -0.0046,0.176255 -0.01292,0.354548 -0.01243,0.532112 0,0.173631 9.16e-4,0.365035 -0.03726,0.532112 -0.01243,0.0539 -0.02209,0.10925 -0.03817,0.160523 -0.0092,0.03088 -0.02565,0.09148 -0.04224,0.113182 -0.01659,0.02169 -0.05375,0.01048 -0.07533,0.0092 -0.05151,-0.0026 -0.106681,-0.02301 -0.156762,-0.04078 -0.115028,-0.04078 -0.229449,-0.02696 -0.346105,-0.01895 a 0.3644248,0.52147831 0 0 0 -0.227104,0.129498 c -0.03817,0.04472 -0.06719,0.07691 -0.0791,0.149306 -0.0097,0.05652 -0.0088,0.118278 -0.0088,0.174798 0,0.125707 -0.0097,0.261905 0.0092,0.384262 a 0.22659486,0.32424881 0 0 0 0.150351,0.237432 c 0.04968,0.02696 0.08785,0.06453 0.131925,0.106626 0.05792,0.05652 0.117166,0.103858 0.178854,0.150619 0.122662,0.09395 0.22843,0.231608 0.361272,0.29526 0.09334,0.04341 0.182517,0.05535 0.280851,0.06191 a 0.42702851,0.61106186 0 0 1 0.153099,0.05521 2.0389466,2.9176565 0 0 1 0.06433,0.04341 c 0.03675,0.02825 0.06719,0.06453 0.108921,0.07429 0.05375,0.01193 0.10943,0.02432 0.163686,0.02696 0.09508,0.0052 0.203997,0.04618 0.298258,0.01312 0.09467,-0.0335 0.154016,-0.184703 0.219266,-0.27618 0.04876,-0.06846 0.108514,-0.177712 0.182517,-0.119735 0.03166,0.02564 0.0565,0.07968 0.08144,0.118426 a 0.25143276,0.3597909 0 0 1 0.05741,0.145374 c 0.01009,0.0539 0.0081,0.11187 0.01648,0.167079 0.006,0.04078 0.01751,0.07691 0.0225,0.118426 a 0.39587936,0.56648858 0 0 1 0.0037,0.120901 c -9.16e-4,0.05142 10e-4,0.107938 -0.0092,0.157899 -0.01058,0.05142 -0.051,0.136195 -0.08775,0.155279 -0.04051,0.02185 -0.101591,0.0052 -0.144346,0.0066 -0.06108,0 -0.122255,0.01312 -0.183841,0.01516 -0.06993,0.0039 -0.137932,-0.0079 -0.207864,-0.01516 a 2.0105459,2.8770162 0 0 0 -0.210512,-0.0039 0.1669432,0.2388895 0 0 0 -0.119508,0.08885 0.45970459,0.6578201 0 0 0 -0.07991,0.169698 c -0.01803,0.05652 -0.03868,0.106482 -0.05751,0.161687 -0.01833,0.05273 -0.0097,0.125706 -0.0097,0.182227 10e-4,0.06584 0.02575,0.123815 0.01934,0.187471 -0.006,0.06322 0.006,0.117114 0.01659,0.177711 0.02199,0.124253 0.03257,0.252 0.06433,0.373629 0.01558,0.06045 0.0285,0.120901 0.04133,0.182079 0.0097,0.04341 0.01607,0.08623 0.03359,0.125707 a 0.21743336,0.31113902 0 0 0 0.148417,0.129642 c 0.07176,0.01763 0.151675,0.0079 0.224356,0.0079 0.09334,0 0.18659,-0.0067 0.279935,0 0.051,0.0026 0.09569,0.03088 0.14526,0.0421 0.05151,0.01312 0.101998,0.02696 0.152591,0.04603 0.09334,0.0335 0.185266,0.04006 0.27851,-0.0015 0.05802,-0.02564 0.122765,-0.06439 0.183026,-0.06846 a 0.58379226,0.83538494 0 0 0 0.109327,-0.01895 c 0.05019,-0.0204 0.103831,-0.0335 0.153099,-0.05783 0.05568,-0.02577 0.111669,-0.02973 0.167757,-0.05011 0.05334,-0.01895 0.124191,-0.0092 0.170607,-0.05783 0.04825,-0.04996 0.07309,-0.138818 0.08642,-0.218496 0.01099,-0.06555 0.02525,-0.132118 0.034,-0.196647 0.0073,-0.0539 -0.0033,-0.107793 -0.0088,-0.159066 -0.0027,-0.02825 -0.0023,-0.05535 -0.0078,-0.0823 -0.006,-0.03088 -0.01833,-0.05652 -0.02616,-0.08609 -0.01607,-0.05929 -0.03583,-0.107793 -0.05609,-0.164455 a 0.8333927,1.1925539 0 0 0 -0.06108,-0.155279 0.31118621,0.44529585 0 0 1 -0.04235,-0.107793 c -0.01202,-0.04734 -0.0285,-0.09279 -0.04051,-0.138818 -0.0086,-0.03496 -0.0077,-0.067 -0.0096,-0.101238 -0.0069,-0.09745 -0.0285,-0.19286 -0.04734,-0.286958 a 0.36086199,0.51638006 0 0 1 -0.0097,-0.234666 c 0.01373,-0.09876 0.07349,-0.206552 0.135081,-0.254621 0.06576,-0.04996 0.0966,-0.124253 0.13559,-0.213107 0.04459,-0.103858 0.08551,-0.199268 0.113093,-0.315073 0.02158,-0.09279 0.04683,-0.198104 0.04642,-0.295261 a 1.6741146,2.3955956 0 0 0 -0.01324,-0.322354 c -0.01425,-0.144062 -0.03542,-0.278949 -0.03542,-0.424903 0,-0.230151 -0.0023,-0.458551 -0.0023,-0.68739 0,-0.159211 -0.01373,-0.319733 -0.01792,-0.478216 -0.0033,-0.157899 -0.0064,-0.315073 -0.01567,-0.472972 -0.0081,-0.137362 -0.0027,-0.274868 -0.01607,-0.411065 -0.01324,-0.147994 -0.0285,-0.292785 -0.03766,-0.440634 -0.006,-0.101382 -0.0046,-0.20466 -0.01191,-0.305897 a 0.49370401,0.70647201 0 0 0 -0.02026,-0.151347 1.929212,2.7606304 0 0 1 -0.03583,-0.163143 l -0.02901,-0.150618 c -0.0092,-0.0421 -0.02616,-0.07822 -0.03583,-0.120901 -0.01974,-0.08623 -0.02209,-0.188783 -0.02983,-0.280257 -0.0056,-0.0606 -0.02535,-0.118426 -0.02718,-0.179604 -4.07e-4,-0.02564 0.0046,-0.05127 0.0055,-0.07822 10e-4,-0.03496 -0.0059,-0.07036 -0.0073,-0.105314 a 2.8095321,4.0203356 0 0 0 -0.01876,-0.27093 c -0.01191,-0.144207 -0.0027,-0.288124 -0.02443,-0.428835 a 0.74462779,1.0655346 0 0 1 -0.0077,-0.296718 1.0440058,1.4939334 0 0 1 0.01974,-0.220972 c 0.01058,-0.07036 0.02443,-0.13095 0.02392,-0.204511 -5.09e-4,-0.136195 -0.006,-0.275013 0.0027,-0.41121 0.0069,-0.101237 0.02067,-0.200579 0.02341,-0.301817 0.0014,-0.0539 0,-0.106626 0,-0.160522 0,-0.0941 -0.0225,-0.183536 -0.03033,-0.275014 -0.0078,-0.0874 -0.0055,-0.174797 -0.01884,-0.26176 -0.01017,-0.06584 -0.01324,-0.134886 -0.01792,-0.203202 -0.0073,-0.114494 -0.02118,-0.227673 -0.02158,-0.342749 -0.001,-0.227527 0.01324,-0.47035 -0.0285,-0.691323 a 0.71062837,1.0168827 0 0 1 -0.02209,-0.252 c -4.07e-4,-0.06176 -0.0037,-0.124253 -0.0027,-0.187326 0.0027,-0.121046 0.02392,-0.232916 0.04876,-0.346681 0.01792,-0.07953 0.04591,-0.151346 0.06841,-0.227527 a 2.8269389,4.045244 0 0 0 0.143022,-0.58222 c 0.02301,-0.132118 0.08083,-0.238744 0.114418,-0.365035 0.034,-0.129643 0.06718,-0.265693 0.130602,-0.373629 0.02474,-0.0421 0.04917,-0.08609 0.07533,-0.125562 a 0.30660545,0.43874096 0 0 1 0.0736,-0.08492 c 0.03217,-0.02169 0.09284,0.01908 0.105256,0.06584 0.0055,0.0204 9.16e-4,0.03875 9.16e-4,0.05914 4.07e-4,0.0335 0.0073,0.067 0.01283,0.09745 0.01934,0.102549 0.01792,0.205095 0.01792,0.312304 0,0.184993 -0.01974,0.363869 -0.02616,0.54595 -0.0051,0.145374 0.0078,0.278945 0.02667,0.419076 0.0046,-0.01908 0.0032,-0.03889 0.0064,-0.05783 0.0088,-0.05667 0.034,-0.107938 0.05059,-0.159211 0.01792,-0.0539 0.02525,-0.114494 0.04408,-0.167079 0.01333,-0.03889 0.02952,-0.07298 0.04275,-0.11187 0.02392,-0.06904 0.04601,-0.136195 0.05975,-0.211795 0.01884,-0.102549 0.05425,-0.182079 0.08602,-0.27618 0.02382,-0.07181 0.01974,-0.160523 0.01974,-0.237432 a 0.73159808,1.0468895 0 0 0 -0.01751,-0.222429 c -0.01324,-0.09279 -0.02708,-0.184847 -0.02708,-0.278949 0,-0.09395 0.01884,-0.17101 0.04866,-0.254475 0.0281,-0.07691 0.05476,-0.117114 0.11126,-0.142751 0.03726,-0.01645 0.0621,-0.02956 0.1021,-0.02301 0.04957,0.0092 0.09742,0.03875 0.148009,0.04865 0.03726,0.0079 0.08958,-0.0052 0.119913,0.02825 0.02209,0.02432 0.03451,0.07968 0.04683,0.114494 a 0.28227653,0.40392719 0 0 1 0.01762,0.06045 0.44911795,0.64267101 0 0 1 0.01558,0.194172 c -4.08e-4,0.05783 0.0018,0.12367 -0.0051,0.179458 -0.0073,0.05797 -0.03074,0.09279 -0.05925,0.130955 -0.051,0.06846 -0.17977,0.124253 -0.188932,0.233499 -0.0082,0.09614 0.04316,0.138819 0.0625,0.226216 0.0092,0.04078 0.02799,0.219808 0.07492,0.186159 0.02341,-0.01645 0.04041,-0.09599 0.05426,-0.126873 0.02525,-0.05797 0.05517,-0.110559 0.08144,-0.167079 0.01964,-0.04341 0.04774,-0.145374 0.08683,-0.161834 0.034,-0.01312 0.06291,0.05652 0.07899,0.08885 0.0285,0.05652 0.06535,0.113037 0.0851,0.177563 0.01099,0.03496 0.01324,0.07429 0.01934,0.111725 0.01009,0.06584 0.02891,0.125707 0.03298,0.19286 0.0033,0.06904 0,0.139985 0,0.20903 0,0.11187 0.01384,0.22112 0.01528,0.330221 9.16e-4,0.07575 0.0018,0.199416 0.04174,0.257244 0.02484,0.03496 0.06352,0.0092 0.09569,0.0052 -10e-4,-0.174943 0.0046,-0.350614 0.0046,-0.525557 0,-0.243988 0.03125,-0.481421 0.03074,-0.726137 0,-0.09148 0.0046,-0.179603 0.0097,-0.269769 0.0065,-0.113037 -0.0032,-0.227527 0.0069,-0.339398 0.01283,-0.139982 0.02748,-0.291328 0.06393,-0.424175 a 0.31810825,0.45520105 0 0 1 0.06159,-0.134886 c 0.02107,-0.0322 0.03624,-0.07298 0.06433,-0.09541 0.04316,-0.0335 0.110752,-0.0421 0.152183,0.0041 0.05232,0.05783 0.02107,0.196647 0.01884,0.278801 -0.0027,0.0941 0,0.188783 0,0.282881 0,0.132117 -0.01202,0.265692 -0.0023,0.397226 0.0069,0.09876 0.04184,0.179604 0.06667,0.269769 0.02524,0.09264 0.04917,0.190092 0.08825,0.272393 0.03492,0.07283 0.06067,0.143918 0.08734,0.223451 0.01884,0.05797 0.05792,0.141438 0.05558,0.206551 0.01384,-0.08478 0.01292,-0.174798 0.01974,-0.25972 a 3.0823416,4.4107157 0 0 0 0.01751,-0.346681 c 0.0023,-0.08885 0.0225,-0.172322 0.0225,-0.26176 0,-0.07968 0.0023,-0.15921 0,-0.237432 a 0.55386462,0.7925596 0 0 0 -0.02162,-0.185001 c -0.01466,-0.07429 -0.02484,-0.15251 -0.04459,-0.224906 -0.02799,-0.101236 -0.06209,-0.232771 -0.05192,-0.342602 a 0.22527154,0.32235518 0 0 1 0.03359,-0.147995 c 0.02067,-0.03889 0.05873,-0.05667 0.08856,-0.07429 0.05069,-0.02973 0.134777,0.01048 0.160531,0.08347 0.01974,0.05652 0.02748,0.136194 0.03909,0.199267 0.01099,0.0606 0.02433,0.123815 0.03308,0.184992 0.0115,0.0807 0.01607,0.161687 0.03532,0.239911 0.01384,0.05535 0.02036,0.110558 0.02718,0.168387 0.0064,0.05535 0.01884,0.107793 0.03033,0.160523 0.01466,0.06846 0.02443,0.137506 0.04174,0.204511 0.03227,0.118426 0.08602,0.210484 0.137118,0.313761 0.05191,0.102694 0.112992,0.203348 0.193003,0.263217 0.0069,-0.113182 -0.0069,-0.2335 -0.01934,-0.344059 a 1.6962041,2.4272047 0 0 1 -0.01884,-0.408443 c 0,-0.121046 0.0097,-0.237432 -0.01191,-0.353236 a 1.0006413,1.4318804 0 0 1 -0.02443,-0.196647 c -0.0051,-0.05666 -0.01558,-0.105314 -0.01558,-0.161831 0,-0.07968 -0.0023,-0.157899 -0.0023,-0.237432 4.07e-4,-0.14013 0.02301,-0.275013 0.02718,-0.413687 0.0032,-0.114494 0.03166,-0.219808 0.06433,-0.323665 0.01833,-0.05929 0.04316,-0.145375 0.09284,-0.149307 0.034,-0.0015 0.08602,0 0.108513,0.04079 0.02616,0.04734 0.02891,0.128186 0.03359,0.183536 0.0068,0.07691 0.0046,0.153821 0.01373,0.228839 a 7.2009528,10.304295 0 0 0 0.02616,0.20524 c 0.0088,0.06438 0.023,0.128185 0.02952,0.192715 0.0068,0.06846 0.0285,0.132262 0.02983,0.201891 0.0018,0.08885 0.02158,0.174942 0.03359,0.260448 0.0073,0.0539 0.02107,0.102694 0.03074,0.155278 0.0073,0.03875 0.0023,0.08361 0.0023,0.12367 0,0.04341 0.0051,0.08085 0.02891,0.111871 0.02901,0.03612 0.04235,0.05914 0.04642,0.123669 0.0097,0.153822 -0.0027,0.313762 -0.0088,0.467583 a 0.27851013,0.39853761 0 0 0 0.128261,-0.07167 c 0.06159,-0.05783 0.09009,-0.167079 0.13559,-0.246609 0.02993,-0.05142 0.06759,-0.09279 0.103016,-0.137506 0.0174,-0.02301 0.02484,-0.04603 0.04133,-0.02956 0.0285,0.03088 0.02392,0.107793 0.02392,0.151198 0,0.10007 -0.006,0.200724 -0.01374,0.299341 -0.0074,0.08885 -0.0065,0.176255 -0.01058,0.26438 -0.0055,0.107793 -0.01292,0.211796 -0.01292,0.321046 0,0.07822 -0.0055,0.167078 0.0027,0.245299 0.02168,-0.01895 0.03817,-0.05127 0.05935,-0.07167 0.0115,-0.0118 0.02443,-0.02185 0.03492,-0.03496 a 0.44860898,0.64194269 0 0 0 0.126429,-0.269479 c 0.01567,-0.05797 0.01659,-0.119883 0.02301,-0.179749 0.0055,-0.05127 0.01373,-0.103857 0.017,-0.155133 0.006,-0.101383 0.0046,-0.207864 0.0046,-0.309829 4.07e-4,-0.115803 0.0069,-0.230151 0.0069,-0.34406 0,-0.09992 0.01243,-0.197958 0.01558,-0.296572 0.0037,-0.117114 -0.0088,-0.254621 0.01974,-0.366491 a 0.22893613,0.32759908 0 0 1 0.181601,-0.215583 c 0.07635,-0.01065 0.178343,-0.01398 0.246852,0.04078 0.05334,0.04195 0.04683,0.143917 0.05599,0.21704 0.01476,0.109101 0.01202,0.209026 0.01202,0.320897 0,0.117114 -0.01466,0.24792 0.0092,0.35979 a 1.6490731,2.3597621 0 0 0 0.122763,0.42301 c 0.03359,0.09002 0.07533,0.17101 0.108003,0.26176 0.01751,0.04734 0.03319,0.09614 0.04835,0.145374 0.01373,0.04341 0.034,0.09002 0.04133,0.136195 a 0.12591997,0.18018678 0 0 0 0.08958,-0.04078 c 0.02535,-0.02578 0.0566,-0.04341 0.0796,-0.07429 0.02983,-0.04078 0.04917,-0.104003 0.06841,-0.155279 0.02993,-0.0823 0.04744,-0.171011 0.08001,-0.253309 0.05385,-0.134886 0.124596,-0.260448 0.16002,-0.412376 0.03258,-0.137506 0.0285,-0.290165 0.06892,-0.427525 a 0.44769282,0.64063173 0 0 0 0.02667,-0.258552 1.5586795,2.2304122 0 0 0 -0.0073,-0.288709 c -0.0088,-0.104006 -0.0056,-0.202036 -0.02901,-0.304585 -0.017,-0.07429 -0.03542,-0.173631 -0.06942,-0.237432 a 0.23025948,0.32949271 0 0 1 -0.05232,-0.194023 c -0.0061,-0.07837 -0.01333,-0.156591 -0.01618,-0.234812 a 1.1307349,1.6180394 0 0 1 0.0078,-0.276325 c 0.0073,-0.07575 10e-4,-0.152655 0.0078,-0.230148 0.0078,-0.09148 0.02616,-0.175087 0.04734,-0.260593 0.01792,-0.07429 0.03583,-0.145374 0.0625,-0.214419 a 0.41735801,0.59722376 0 0 0 0.0336,-0.126886 c 0.01466,-0.08099 0.05293,-0.101382 0.09233,-0.152655 0.03726,-0.04865 0.06617,-0.107793 0.11401,-0.137506 0.01933,-0.01167 0.03909,-0.01632 0.05701,-0.03088 0.01425,-0.01048 0.02667,-0.02825 0.04143,-0.03612 0.04499,-0.02185 0.120422,0.0066 0.162668,0.0322 0.05008,0.0322 0.08653,0.09992 0.121339,0.15659 0.04326,0.06439 0.06393,0.129643 0.09151,0.207864 0.02067,0.05914 0.04591,0.119738 0.04683,0.187471 0.01528,-0.04734 0.0065,-0.123815 0.0097,-0.177712 0.0074,-0.08215 0.02341,-0.160377 0.0341,-0.241367 a 0.88632591,1.2682993 0 0 0 0.01517,-0.249232 c 0,-0.104006 -0.0065,-0.211795 0.02239,-0.311141 0.01528,-0.05127 0.02952,-0.08885 0.07085,-0.08361 0.05008,0.0067 0.08876,0.05535 0.126429,0.100071 0.03125,0.03875 0.06892,0.163143 0.112177,0.165766 0.05558,0.0039 0.08775,-0.08885 0.117675,-0.14013 0.0225,-0.03875 0.034,-0.08492 0.05008,-0.128185 0.03583,-0.09541 0.08642,-0.169844 0.13101,-0.255933 0.04041,-0.07575 0.05741,-0.171011 0.09518,-0.249377 0.01607,-0.03204 0.08083,-0.187471 0.118592,-0.161686 0.03033,0.0204 0.02616,0.156442 0.02942,0.194027 0.0115,0.161686 0.06016,0.319588 0.0565,0.484042 0.0027,-0.128185 0.01792,-0.252 0.01792,-0.380184 0,-0.06846 0.0092,-0.113182 0.02341,-0.177711 0.01618,-0.0689 0.01058,-0.13343 0.01893,-0.203058 a 0.21142747,0.30254482 0 0 1 0.07533,-0.171011 c 0.04235,-0.05142 0.08653,-0.105314 0.134673,-0.14275 0.04683,-0.03627 0.09976,-0.07312 0.149842,-0.09614 0.03685,-0.01645 0.07909,-0.01645 0.115027,-0.04078 0.01781,-0.01048 0.03298,-0.04603 0.05191,-0.04341 -0.0018,0.05011 0.0055,0.104003 0.0073,0.155279 0.0037,0.07691 0.0046,0.15659 0.0046,0.234811 0,0.1646 -0.0115,0.32629 -0.0115,0.490744 0,0.0973 -0.0073,0.213107 0.03125,0.297884 0.01607,0.03496 0.04683,0.06322 0.068,0.08885 0.01607,0.0204 0.0396,0.04006 0.05019,0.06701 0.0073,0.01645 0.0073,0.03627 0.01324,0.05142 0.02952,-0.20058 0.0171,-0.40451 0.0171,-0.609169 0,-0.163143 0.02341,-0.319588 0.03308,-0.48142 0.0064,-0.106626 9.17e-4,-0.214419 0.01425,-0.319734 a 0.53778107,0.76954466 0 0 1 0.02525,-0.133429 c 0.01058,-0.03889 0.03766,-0.0606 0.05935,-0.0874 a 2.5649194,3.670304 0 0 0 0.155338,-0.206697 c 0.01517,-0.0204 0.04408,-0.09002 0.07075,-0.06438 0.01884,0.01763 0.01058,0.0973 0.0115,0.124253 0.0046,0.122358 0.01333,0.2453 0.01974,0.366346 0.01242,-0.04603 0.04143,-0.09002 0.06026,-0.13343 a 2.3399534,3.3483858 0 0 0 0.07726,-0.214419 c 0.04825,-0.146682 0.08551,-0.299341 0.129991,-0.448646 0.04927,-0.163143 0.115027,-0.346681 0.211021,-0.469039 0.02535,-0.0322 0.05293,-0.07429 0.08368,-0.0973 0.0285,-0.02185 0.05935,-0.02185 0.08958,-0.03612 0.03319,-0.01516 0.05843,-0.02841 0.09334,-0.02841 0.04418,-0.0013 0.107598,-0.03481 0.13844,0.02841 0.02708,0.05783 0.01884,0.138673 0.01884,0.203203 0,0.04865 0,0.09016 0.01517,0.132262 0.02158,0.06045 0.04316,0.107793 0.0509,0.174798 a 1.3079593,1.871641 0 0 1 0,0.587464 0.90322384,1.2924796 0 0 0 -0.01324,0.226216 c 0,0.05929 -0.0092,0.122358 -0.0064,0.179603 0.0285,0.0052 0.068,-0.01516 0.09701,-0.0204 0.117573,-0.02564 0.197585,-0.15251 0.262834,-0.286813 a 2.5263393,3.6150974 0 0 0 0.120525,-0.263069 c 0.02067,-0.05258 0.04825,-0.101237 0.06892,-0.155133 0.017,-0.04341 0.03217,-0.08755 0.051,-0.129643 0.04418,-0.09993 0.08459,-0.207863 0.142004,-0.294097 0.06667,-0.09992 0.119508,-0.211795 0.148926,-0.342602 0.0281,-0.118426 0.0281,-0.219663 0.0281,-0.342748 0,-0.04472 -0.0055,-0.09731 10e-4,-0.141294 a 0.15350632,0.21966181 0 0 1 0.08357,-0.141439 c 0.05558,-0.03102 0.124188,-0.02841 0.183841,-0.02841 0.0621,0 0.111261,-0.0039 0.167757,0.03889 0.0171,0.0118 0.05477,0.02696 0.06485,0.04603 0.0115,0.02433 0.0064,0.09148 0.0037,0.118426 -0.0027,0.0335 -0.0115,0.06176 -0.01243,0.09527 a 0.80173457,1.1472522 0 0 0 10e-4,0.150618 c 0.0018,0.0488 0.0114,0.113182 0.0018,0.161835 -0.0115,0.05535 -0.04927,0.09876 -0.05751,0.157899 a 0.44127977,0.63145486 0 0 0 -0.001,0.192715 c 0.0083,0.05797 0.05202,0.102694 0.08103,0.14013 0.03125,0.04078 0.06657,0.08885 0.103423,0.120901 a 0.18251778,0.26117616 0 0 1 0.06892,0.09293 c 0.03217,0.07691 0.04133,0.168387 0.05293,0.254476 0.01781,0.129642 -0.01618,0.261759 -0.0226,0.391982 a 3.372151,4.8254221 0 0 0 -0.0082,0.390818 c 0,0.0335 -0.0064,0.120901 0.03033,0.07167 0.02525,-0.0322 0.04041,-0.102694 0.05558,-0.146683 0.01884,-0.05258 0.02952,-0.11187 0.05477,-0.161686 0.03308,-0.06453 0.08866,-0.102694 0.122153,-0.167223 a 0.29968341,0.4288358 0 0 0 0.05385,-0.264381 c -0.0018,-0.199267 -0.0046,-0.399265 -0.0046,-0.599845 0,-0.109247 0.0064,-0.223741 0.01425,-0.331532 0.0073,-0.09017 0.02942,-0.178295 0.04499,-0.263217 0.0083,-0.04996 0.02341,-0.07822 0.04143,-0.116969 0.01792,-0.03889 0.02158,-0.0823 0.04316,-0.119738 0.04784,-0.08361 0.10943,-0.146683 0.16002,-0.226361 0.04683,-0.07429 0.103423,-0.146682 0.134674,-0.237432 0.0225,-0.067 0.06108,-0.118281 0.09507,-0.173631 0.0341,-0.05535 0.0621,-0.120901 0.08693,-0.186159 0.02708,-0.06904 0.06301,-0.130806 0.09335,-0.197959 0.03492,-0.07574 0.06708,-0.153967 0.101591,-0.230151 0.01607,-0.03627 0.03033,-0.07312 0.04683,-0.107793 0.01884,-0.04487 0.04683,-0.08099 0.06668,-0.125707 0.01792,-0.04078 0.03033,-0.08885 0.05008,-0.127018 0.0115,-0.02301 0.02616,-0.04472 0.03583,-0.06846 0.01607,-0.03481 0.03685,-0.06904 0.04917,-0.10925 0.01528,-0.04982 0.02341,-0.103857 0.03685,-0.155133 a 0.41369342,0.59197982 0 0 0 0.0285,-0.21704 c 0.0018,-0.07036 -10e-4,-0.142751 0.0055,-0.211796 0.0092,-0.103857 0.0082,-0.207863 0.0046,-0.312449 -0.0018,-0.05259 -0.0055,-0.105169 0.0018,-0.156591 0.01058,-0.08084 0.0281,-0.155133 0.03033,-0.238743 0.0018,-0.06307 0.0018,-0.125562 0.02067,-0.186159 0.01528,-0.04997 0.04143,-0.09264 0.06209,-0.138819 0.02341,-0.05521 0.05293,-0.105169 0.07441,-0.161686 0.02535,-0.0606 0.04784,-0.127019 0.08551,-0.175088 a 0.6608508,0.94565281 0 0 1 0.121338,-0.116969 c 0.0281,-0.01908 0.04784,-0.05142 0.07085,-0.07837 0.0082,0.04021 0.02443,0.08361 0.02708,0.125707 0.0046,0.067 -0.0018,0.137506 -0.0018,0.20524 0,0.125561 -0.0037,0.252 0,0.376251 0.0027,0.102549 0.0027,0.201891 0.01528,0.301816 0.0081,0.06453 0.0092,0.124398 0.0092,0.190091 0,0.100071 -0.0029,0.199416 -0.0029,0.29803 0.001,0.07429 0.0074,0.153967 0.01425,0.227527 0.0056,0.06322 -0.0018,0.124398 -0.0092,0.18878 -0.017,0.145374 -0.01607,0.288853 -0.01607,0.435536 0,0.04006 -0.0073,0.177566 0.04601,0.163143 0.02433,-0.0067 0.06108,-0.05929 0.08083,-0.07837 0.02535,-0.02564 0.05018,-0.04997 0.0681,-0.08609 0.0285,-0.05797 0.04133,-0.127019 0.07716,-0.179603 0.02168,-0.03088 0.06118,-0.09148 0.08958,-0.09876 0.02626,-0.0092 0.04835,0.0093 0.06902,0.02578 0.01607,0.01312 0.04683,0.02301 0.05843,0.04078 0.02942,0.04006 0.01884,0.159065 0.02067,0.213107 0.0027,0.06846 -0.0082,0.13605 0.01058,0.201891 0.01884,0.06438 0.02942,0.134886 0.05293,0.196647 0.02799,0.07298 0.07431,0.110558 0.106578,0.177711 0.02067,0.04195 0.04591,0.109102 0.07991,0.13343 0.02952,0.0204 0.08093,0.01048 0.110345,-0.0092 0.02158,-0.01516 0.03766,-0.04021 0.05843,-0.05667 0.02525,-0.02169 0.05466,-0.02956 0.08083,-0.04865 a 0.59753452,0.85504961 0 0 1 0.184859,-0.09731 c 0.06209,-0.01384 0.127244,-0.02564 0.190356,-0.01645 0.05925,0.0079 0.120321,0.0322 0.179668,0.04865 0.06016,0.01645 0.112992,0.04341 0.171422,0.06905 0.0736,0.03233 0.13559,0.07968 0.21275,0.07968 0.04784,0 0.10261,-0.0039 0.143531,0.04078 0.05558,0.06307 0.068,0.174798 0.05466,0.267004 -0.0082,0.06322 -0.034,0.107793 -0.04825,0.167079 -0.01425,0.05783 -0.02158,0.118426 -0.034,0.177711 a 2.3538992,3.3683419 0 0 0 -0.04683,0.289872 c -0.01161,0.09745 -0.0074,0.19286 -0.0281,0.290165 -0.0281,0.130951 -0.03125,0.26176 -0.04509,0.395916 -0.0046,0.04341 -0.01324,0.08754 -0.01792,0.130951 -0.0055,0.06904 -0.0055,0.138818 -0.01324,0.206551 -0.0065,0.0539 -0.01618,0.09993 -0.0171,0.153967 -10e-4,0.06701 -0.0097,0.134741 -0.017,0.200579 -0.0092,0.07036 -0.0046,0.146683 -0.0046,0.218352 -0.001,0.08492 -0.0115,0.167078 -0.01333,0.252 -0.0018,0.0657 -0.0064,0.142751 0.0018,0.207718 0.01058,0.09148 0.03767,0.187471 0.06393,0.26977 a 0.42193879,0.60377865 0 0 1 0.03492,0.145374 c 0.0115,0.109246 0.04499,0.207863 0.06016,0.318277 0.01243,0.08623 0.03685,0.167075 0.04326,0.255932 0.0046,0.06701 0.0115,0.133575 0.01324,0.203203 10e-4,0.05797 0.0047,0.07036 0.0285,0.118426 a 0.20827183,0.29802921 0 0 1 0.03502,0.142751 c 0.01607,0.137506 0.03868,0.276325 0.04499,0.416308 0.0083,0.168387 0.04693,0.322354 0.08184,0.481567 0.01425,0.06307 0.01974,0.141293 0.0285,0.207863 0.01333,0.101237 0.05375,0.18878 0.06301,0.291329 0.0064,0.06905 0.06383,0.105314 0.07075,0.174942 0.0225,0.01312 0.05385,0.07575 0.06576,0.105315 0.03125,0.07166 0.06301,0.137506 0.09976,0.204511 0.02525,0.04472 0.05375,0.08885 0.07533,0.136195 0.017,0.03875 0.02077,0.08215 0.03125,0.124253 0.02535,0.09279 0.08653,0.153967 0.132841,0.219808 0.02077,0.02825 0.04235,0.05127 0.06209,0.07953 0.01974,0.03088 0.03675,0.0657 0.05935,0.09279 a 0.49431477,0.70734598 0 0 0 0.11574,0.103857 0.30986288,0.44340222 0 0 1 0.09335,0.09279 c 0.03399,0.04078 0.07633,0.06307 0.113095,0.09992 a 0.50367986,0.7207471 0 0 1 0.07533,0.09148 c 0.03502,0.05652 0.0511,0.147995 0.03502,0.219663 -0.0092,0.04341 -0.02534,0.07429 -0.02953,0.120901 a 0.22252308,0.31842224 0 0 1 -0.04582,0.13372 0.43211824,0.61834507 0 0 1 -0.155437,0.19519 c -0.02719,0.01793 -0.04601,0.02446 -0.06393,0.06453 -0.01609,0.03627 -0.02616,0.07968 -0.01695,0.121046 0.01781,0.07691 0.08786,0.147994 0.12316,0.210484 0.06393,0.11187 0.129277,0.217039 0.209195,0.307205 0.02798,0.0322 0.05558,0.05652 0.07726,0.101237 l 0.03309,0.06453 a 0.23025948,0.32949271 0 0 1 0.03125,0.07167 c 0.01609,0.05127 0.0092,0.138818 0.0045,0.195335 a 1.0857416,1.5536557 0 0 1 -0.04326,0.296718 c -0.01609,0.07166 -0.04225,0.134738 -0.05283,0.209175 -0.0092,0.067 -0.0064,0.132118 -0.0064,0.199267 0,0.07167 -0.0073,0.151347 0.0036,0.222284 0.0064,0.0539 0.02719,0.102694 0.03492,0.15659 0.0075,0.04734 0.0056,0.10517 0.0056,0.153967 0,0.151199 0.0073,0.303129 0.0045,0.454473 a 1.6874497,2.4146776 0 0 1 -0.0097,0.249232 c -0.0073,0.08623 -0.0056,0.172319 -0.01695,0.257244 -0.01524,0.101237 -0.04783,0.196647 -0.06301,0.297884 -0.0064,0.04078 -0.001,0.08623 -0.0073,0.124399 -0.0073,0.04341 -0.03492,0.08347 -0.04419,0.128185 -0.0082,0.03627 -0.0206,0.06846 -0.02798,0.104006 -0.0018,0.0118 -0.001,0.03744 -0.0056,0.04603 -0.0045,0.01048 -0.01888,0.0118 -0.02442,0.02301 -0.01052,0.0204 -0.01331,0.06191 -0.0206,0.08623 -0.0206,0.06438 -0.05466,0.101237 -0.08185,0.155134 -0.02238,0.04472 -0.02434,0.11187 -0.03399,0.164599 -0.01159,0.05783 -0.04133,0.11697 -0.06107,0.170866 -0.0226,0.0606 -0.05659,0.106626 -0.07818,0.167075 -0.04316,0.117114 -0.07258,0.245445 -0.115843,0.363724 -0.03583,0.100071 -0.08093,0.192715 -0.10159,0.301962 -0.04041,0.210483 -0.124191,0.400577 -0.153507,0.614412 -0.01607,0.12367 -0.04825,0.241367 -0.06983,0.362413 a 1.0594786,1.5160743 0 0 1 -0.07818,0.286667 c -0.03217,0.08755 -0.03868,0.196648 -0.05293,0.294098 -0.02616,0.173631 -0.06892,0.344059 -0.105153,0.515069 -0.0171,0.08215 -0.0226,0.168387 -0.04143,0.249232 -0.017,0.07298 -0.03675,0.14275 -0.04683,0.218496 -0.0097,0.07822 -0.02443,0.155134 -0.03318,0.234667 a 0.20460721,0.29278531 0 0 1 -0.07075,0.175087 c -0.017,0.01895 -0.03033,0.03088 -0.04509,0.05783 -0.01517,0.02825 -0.02799,0.05914 -0.04683,0.08347 -0.034,0.04603 -0.05568,0.105314 -0.08551,0.156591 -0.04041,0.07036 -0.08785,0.133574 -0.131927,0.198104 -0.02443,0.03481 -0.05375,0.06176 -0.07451,0.09992 -0.02067,0.04006 -0.04041,0.07953 -0.06291,0.118281 -0.03492,0.05929 -0.06484,0.132263 -0.09243,0.199416 -0.04224,0.101237 -0.05833,0.219663 -0.09518,0.322209 a 2.6913484,3.8512192 0 0 0 -0.07899,0.234811 0.52078138,0.74521872 0 0 1 -0.0566,0.142751 c -0.01517,0.03233 -0.03492,0.06191 -0.0509,0.0941 -0.01528,0.0335 -0.02077,0.07167 -0.03227,0.106626 -0.0225,0.06438 -0.02799,0.137362 -0.04917,0.203203 a 3.0599469,4.3786699 0 0 0 -0.07268,0.243988 c -0.03125,0.113182 -0.08174,0.215727 -0.125412,0.31711 -0.03766,0.08609 -0.06118,0.183535 -0.09793,0.269624 -0.03766,0.0874 -0.05568,0.182227 -0.0906,0.273704 -0.03675,0.09395 -0.06016,0.207864 -0.112177,0.28798 a 1.3579405,1.9431622 0 0 0 -0.07441,0.127019 c -0.01528,0.02825 -0.03125,0.05652 -0.04509,0.08623 -0.0115,0.02564 -0.01517,0.06045 -0.02616,0.08478 -0.01884,0.04078 -0.06983,0.04996 -0.0736,0.109246 -9.17e-4,0.03088 0,0.06307 0,0.09395 v 0.180915 c 0,0.04734 0.0018,0.0941 -0.0046,0.14013 -0.0046,0.03496 -0.01974,0.06453 -0.03125,0.09541 -0.01243,0.0335 -0.02525,0.05258 -0.04133,0.08216 -0.02535,0.04472 -0.04326,0.09614 -0.07085,0.14013 -0.04825,0.07429 -0.09416,0.151347 -0.143326,0.224907 a 1.8363753,2.6277845 0 0 1 -0.06718,0.09541 c -0.02158,0.02825 -0.05008,0.04078 -0.07533,0.06322 -0.04825,0.04341 -0.08653,0.111725 -0.13844,0.147994 -0.04784,0.0335 -0.09324,0.08347 -0.144243,0.103858 -0.02626,0.01048 -0.04418,0.0026 -0.06902,0 -0.03033,-0.0039 -0.05741,0.0015 -0.08642,-0.01384 -0.03492,-0.02169 -0.06291,-0.05652 -0.09508,-0.08215 -0.02168,-0.01645 -0.04693,-0.02696 -0.06576,-0.04734 -0.02158,-0.02301 -0.03217,-0.05797 -0.05008,-0.0874 -0.03033,-0.04618 -0.08551,-0.05535 -0.128261,-0.04618 -0.034,0.0079 -0.05843,0.05258 -0.08276,0.0874 a 0.14892557,0.21310692 0 0 0 -0.0395,0.106627 1.6171096,2.3140236 0 0 1 -0.03685,0.169698 c -0.0064,0.02185 -0.01324,0.067 -0.02525,0.0823 -0.01058,0.01368 -0.02942,0.01312 -0.04316,0.01777 a 0.17834421,0.25520391 0 0 0 -0.07818,0.08347 c -0.02443,0.04472 -0.01243,0.107793 -0.0115,0.161686 10e-4,0.07968 0.01974,0.158047 0.01974,0.238889 0,0.05258 0.02067,0.0973 0.02952,0.147994 0.0096,0.04865 8.14e-4,0.102549 0.0072,0.152655 0.0083,0.05652 0.03593,0.109247 0.05385,0.160378 0.017,0.05011 0.03308,0.102694 0.04133,0.157899 0.0073,0.05127 -0.0018,0.07575 0.03492,0.0941 l 0.116759,0.05259 0.254181,0.0092 0.148009,0.008 0.135693,-0.02433 0.105664,0.186015 0.497369,0.05011 0.32503,0.01645 0.277594,0.06846 0.194936,-0.0606 0.0064,-0.253309 -0.160021,-0.288124 -0.259169,-0.09264 -0.04235,-0.134886 0.01792,-0.525557 0.105765,-0.06701 0.248684,-0.372318 0.272097,-0.431603 0.15992,-0.06701 0.248684,0.110413 0.200535,0.05797 0.449933,0.02564 0.289096,0.01777 0.390791,-0.06905 0.33643,-0.05011 -0.01781,-0.701082 0.206341,-0.431458 0.177927,-0.101382 0.283601,-0.21966 0.260186,-0.219663 0.147089,-0.322354 0.886224,-2.764563 0.503884,-1.514909 0.543277,-1.276603 0.189344,-0.448646 0.277592,-0.73473 0.09518,-0.288125 0.07635,-0.270936 0.07717,-0.778867 0.25927,-0.489432 0.05294,-0.288708 0.06565,-0.540561 0.656473,-0.448646 -0.343048,-1.209014 0.189451,-0.541871 0.02953,-0.278949 -0.183034,-0.599846 0.247767,-0.363869 0.08275,-0.13605 0.02442,-0.219808 0.08775,0.04224 0.461436,0.457094 0.224356,-0.524392 0.153505,-0.761532 0.05294,-0.363724 -0.0056,-0.261905 -0.319431,-1.226639 0.467033,-0.540707 0.290114,0.288125 0.212757,-0.195335 0.03492,-0.118426 -0.05833,-0.355858 -0.01803,-1.360214 0.183035,-0.669618 0.354347,-0.548572 -0.112173,-2.148258 0.160029,-0.771001 0.05833,-1.420664 0.177927,-0.125707 0.189344,0.134886 0.182927,0.06846 0.141187,-0.02578 0.08865,-0.22884 -0.0045,-0.295407 c -0.790313,0.472998 -1.764286,0.710431 -2.925049,0.710431 -1.217667,-0.0073 -2.225232,-0.222866 -3.023199,-0.655781 z m -12.883129,0.445296 h -8.5649 V 35.68223 h 3.333978 v 9.185593 h 5.230514 v 2.993402 l 9.428729,-1.795604 c -0.384275,0.657674 -0.921242,1.156283 -1.610697,1.493059 -0.689557,0.336776 -1.558781,0.506475 -2.607266,0.506475 -1.841465,0 -3.116952,-0.395915 -3.826257,-1.188621 -0.709203,-0.79387 -1.11007,-1.80347 -1.203314,-3.031566 l 3.173957,-0.219662 c 0.06891,0.580764 0.210001,1.020088 0.422855,1.320739 0.345694,0.489432 0.840314,0.734731 1.483351,0.734731 0.479453,0 0.849476,-0.126874 1.108747,-0.380184 0.259271,-0.253165 0.389772,-0.544639 0.389772,-0.87486 0,-0.316966 -0.12419,-0.597224 -0.371856,-0.843834 -0.246852,-0.25331 -0.818632,-0.487975 -1.715443,-0.706472 -1.466861,-0.372318 -2.513004,-0.868159 -3.137718,-1.486504 -0.630109,-0.610333 -0.94557,-1.393134 -0.94557,-2.348255 0,-0.6249 0.160835,-1.21484 0.483117,-1.769384 0.323198,-0.554544 0.808147,-0.991975 1.455358,-1.310979 0.64721,-0.319589 1.53435,-0.479527 2.66193,-0.479527 1.383593,0 2.43849,0.288853 3.164795,0.867722 0.725287,0.578725 1.158321,1.499615 1.295337,2.762524 l -3.138634,0.200579 c -0.08449,-0.548571 -0.261104,-0.947837 -0.532386,-1.19838 -0.270163,-0.249377 -0.64436,-0.37494 -1.120556,-0.37494 -0.39252,0 -0.687622,0.09337 -0.886224,0.279677 -0.198601,0.186014 -0.297851,0.412959 -0.297851,0.68069 0,0.190091 0.08266,0.365617 0.248684,0.526868 0.160836,0.15455 0.535949,0.302545 1.126562,0.442674 1.461771,0.359062 2.509339,0.718853 3.1424,1.081994 0.631941,0.362413 1.092562,0.811642 1.380743,1.350309 0.28818,0.538812 0.431609,1.137347 0.431609,1.798371 0,0.787316 -0.192086,1.510976 -0.575445,2.167486 z"
         id="path884"
         style="clip-rule:evenodd;fill-rule:evenodd;stroke-width:9.25375" />
      <rect
         style="opacity:0.98;fill:#000000;stroke-width:0.264999;stroke-dasharray:6.36, 0.264999;paint-order:stroke fill markers"
         id="rect2221"
         width="33.895142"
         height="1.893783"
         x="28.76136"
         y="33.788448" />
    </g>
    <rect
       style="opacity:0.98;fill:#000000;stroke-width:0.314044;stroke-dasharray:7.53708, 0.314044;paint-order:stroke fill markers"
       id="rect2223"
       width="32.621243"
       height="4.386559"
       x="39.241226"
       y="44.867821" />
    <path
       style="opacity:0.98;fill:#000000;stroke-width:0.314044;stroke-dasharray:7.53708, 0.314044;paint-order:stroke fill markers"
       id="path2262"
       d="m 19.729107,33.04455 c -0.07905,0.05966 -0.186332,0.105375 -0.23717,0.17898 -0.298909,0.432768 -0.364953,1.021524 -0.377919,1.493925 -0.0081,0.296952 -0.08481,0.248271 0.07261,0.323431 0.03237,-0.041 0.409051,-0.356322 0.410451,-0.355025 0.05293,0.04896 -0.09917,0.102433 -0.133039,0.159311 -1.208518,2.028817 -0.05001,0.228539 0.240798,-0.207058 -0.789469,0.351401 -1.143493,1.015928 -1.370949,1.62886 -0.05553,0.390824 -0.187215,0.711229 -0.247947,1.093618 -0.0066,0.06907 -0.01572,0.138049 -0.01996,0.207219 -0.0097,0.158133 -0.0066,0.273013 5.58e-4,0.43103 0.0029,0.06485 0.02174,0.258966 0.01208,0.194455 -0.03511,-0.23327 0.07866,-0.267528 -0.05873,-0.212076 -0.26781,0.525623 -0.312662,1.078555 -0.266602,1.631016 0.04055,0.316494 0.169444,0.624527 0.07828,0.93995 -0.07259,0.448564 -0.08995,0.903423 -0.0482,1.354029 0.0795,0.427908 0.116074,0.873689 0.300884,1.286735 0.07469,0.166934 0.212856,0.315929 0.319285,0.47389 0.12523,0.203211 -0.16758,-0.279029 -0.161857,-0.259583 0.02973,0.101024 0.203185,0.382128 0.119866,0.297665 0.267918,0.603393 0.382036,0.752739 0.882761,1.39655 0.481409,0.392811 0.133784,0.119271 0.01555,-0.01855 -0.08168,-0.09522 -0.15208,-0.195427 -0.216142,-0.297255 -0.039,-0.062 -0.06719,-0.258479 -0.09224,-0.192928 -0.02958,0.07737 0.04135,0.158123 0.07641,0.23432 0.06966,0.151336 0.158084,0.297958 0.237125,0.446937 0.424244,0.575839 0.168446,0.179599 0.08832,0.04605 0.113841,0.282032 5.715379,-0.864323 5.601536,-1.146358 v 0 c -0.07594,-0.139636 -0.210909,-0.433051 -0.355008,-0.585417 -0.03314,-0.03504 0.04741,0.07746 0.07112,0.116195 0.03382,0.08415 0.06993,0.167854 0.101496,0.252449 0.05686,0.152413 -0.09374,-0.309285 -0.169854,-0.45738 -0.210623,-0.409813 -0.343919,-0.541811 -0.704528,-0.866391 -0.02649,-0.02384 0.04109,0.05331 0.06164,0.07996 0.113433,0.171955 0.233014,0.341921 0.340298,0.515868 0.01932,0.03134 0.04897,0.132366 0.03887,0.0989 -0.02216,-0.07344 -0.252813,-0.721704 -0.198124,-0.453626 -0.178125,-0.449595 -0.324837,-0.806622 -0.708541,-1.237091 0.370269,0.669169 0.03512,-0.01071 0.30056,0.856922 0.01039,0.03413 0.0077,-0.0697 0.01458,-0.104291 0.02977,-0.149661 0.07695,-0.297886 0.09248,-0.449077 0.05904,-0.478806 0.05233,-0.963401 -0.0132,-1.441662 -0.06559,-0.309901 -0.10439,-0.623776 -0.05064,-0.936519 0.0293,-0.264853 0.0039,-0.529211 0.04943,-0.790487 0.05257,-0.283925 0.0031,-0.583237 0.133755,-0.852181 0.02036,-0.06166 0.288934,-1.091303 0.118336,-0.739799 -0.0096,0.03013 -0.224336,0.322038 -0.394464,0.431697 -0.01404,0.009 0.01966,-0.02297 0.02949,-0.03444 1.193867,-1.585434 1.055575,-1.495081 0.416623,-0.369957 -0.01501,0.02646 -0.06672,0.09903 -0.03465,0.08195 0.509419,-0.271206 0.817245,-0.712187 1.12286,-1.092615 0.204448,-0.37219 0.402955,-0.68521 0.521972,-1.075293 0.207622,-0.680477 0.142788,-1.401398 -0.05344,-2.076839 0,-0.299916 -5.95669,-0.299916 -5.95669,0 z" />
    <path
       style="opacity:0.98;fill:#000000;stroke-width:0.314044;stroke-dasharray:7.53708, 0.314044;paint-order:stroke fill markers"
       id="path2264"
       d="m 19.774953,32.710595 c -0.130638,-0.01598 -0.259779,-0.05546 -0.391906,-0.04794 -1.098455,0.06253 -2.125541,0.583028 -2.871853,1.12558 -1.01688,0.840682 -1.299359,1.821709 -0.74076,2.870335 0.06799,0.148175 -0.03816,-0.08101 -0.10842,-0.319794 -0.01907,-0.06484 -0.0143,-0.132937 -0.03925,-0.196752 -0.01965,-0.05024 -0.07842,0.09006 -0.09633,0.140634 -0.0259,0.07318 -0.04521,0.147463 -0.06781,0.221197 -0.07813,0.500502 -0.105134,1.008367 -0.115793,1.511864 -0.02907,0.472448 0.01761,0.944843 0.01916,1.417597 0.03612,0.325401 0.08987,0.647063 0.09763,0.97367 -0.03903,0.469172 0.0074,0.927338 0.153947,1.386644 0.134823,0.311478 0.192473,0.60525 0.316725,0.930476 0.180506,0.662419 0.5711,1.262203 1.051387,1.838018 0.332605,0.422757 0.847378,0.724125 1.3183,1.059537 0.377987,0.312724 0.759222,0.595299 1.094204,0.932741 0.662712,0.563478 1.517005,0.976572 2.424541,1.313733 0.209436,0.0241 0.56577,0.275204 0.749629,0.258522 0.04127,-0.0038 -0.09528,-0.06525 -0.05817,-0.07864 0.04929,-0.01778 0.462908,0.206029 0.525644,0.237414 0.24175,-0.12627 0.47236,0.378952 0.09683,-0.06826 -0.03414,-0.04065 0.191599,0.129289 0.154404,0.09002 -0.05255,-0.05549 -0.112759,-0.107104 -0.169135,-0.160655 -0.03008,0.03534 1.360523,1.179647 0.858124,0.615944 0.136522,0.201994 2.097947,1.443234 0.877564,0.52836 1.148761,0.804511 -0.372185,-0.238265 0.591417,0.445831 0.03619,0.02569 -0.05226,-0.06523 -0.09402,-0.08619 -0.02326,-0.01167 0.02241,0.03724 0.03364,0.05586 0.266245,0.215294 0.602744,0.615042 1.011178,0.702717 0.03014,0.0065 -0.05747,-0.0693 -0.02675,-0.06445 0.06965,0.01103 0.118223,0.057 0.174871,0.08788 0.162682,0.0887 0.321964,0.180522 0.482945,0.270785 -0.550886,-0.475202 -0.322526,-0.103058 0.01264,0.121304 0.544531,0.662884 1.317677,1.178591 2.241325,1.570013 2.10699,0.86609 4.547703,0.753351 6.888376,0.524725 0.845629,-0.03559 1.498743,-0.199105 2.232655,-0.486151 0.3807,-0.136573 -2.331811,-3.970166 -2.712512,-3.833593 v 0 c -0.324873,-0.325043 -1.011416,-0.117806 -1.480093,-0.176654 -0.214264,-0.0046 -0.428512,-0.0099 -0.642803,-0.01389 -0.222177,-0.0042 -0.888322,-0.02154 -0.666596,-0.01066 0.339616,0.01667 0.689798,-0.02947 1.020495,0.02804 0.200081,0.03479 -0.41292,0.01413 -0.615001,0.04247 -0.497237,0.06974 -0.41054,0.05013 -0.644503,0.266155 -0.355337,0.01614 -0.132407,-0.03467 -0.009,0.248679 0.02883,0.06623 -0.183662,-0.04706 -0.25842,-0.110826 -0.05973,-0.05095 -0.110597,-0.10686 -0.16589,-0.16029 -0.439347,-0.481208 -1.00361,-0.898043 -1.621,-1.272672 0.660361,0.489347 -0.245122,-0.198213 -0.274369,-0.185468 -0.0572,0.02492 0.138868,0.112927 0.02102,0.142468 -0.193764,-0.146484 -0.36108,-0.31105 -0.567417,-0.448554 -0.02567,-0.01712 0.02267,0.04744 0.03396,0.07115 -0.06774,-0.04943 -0.135455,-0.09886 -0.203188,-0.148283 -0.07113,-0.05223 -0.110667,-0.154043 -0.212753,-0.157128 -0.08721,-0.0026 0.09695,0.103396 0.145419,0.155093 -0.05354,-0.04615 -0.102353,-0.0953 -0.160605,-0.138454 -1.467631,-1.087313 -0.317942,-0.219662 -0.221858,-0.04188 0.02928,0.05419 -0.08565,-0.09884 -0.128489,-0.148259 -0.259922,-0.256794 -0.402123,-0.445982 -0.738464,-0.63677 -0.02107,-0.01196 -0.05599,0.0046 -0.08074,-0.003 -0.17321,-0.05316 -0.255901,-0.141571 -0.271757,-0.07906 -0.0088,0.03519 0.03958,0.06573 0.05936,0.09859 -0.344972,-0.316841 -0.731454,-0.603745 -1.150781,-0.857118 0.05199,0.110464 0.024,0.03128 -0.215002,-0.115091 -0.442695,-0.271097 -0.529601,-0.300262 -0.996835,-0.453223 -0.123602,-0.04046 -0.239247,-0.09224 -0.35887,-0.138359 -0.401828,-0.07665 -0.303408,-0.132027 -0.699417,-0.276976 -0.03526,-0.01291 0.09404,0.234521 -0.11731,0.01418 -0.457644,-0.30656 -0.832121,-0.676085 -1.311807,-0.927026 -0.325715,-0.269653 -0.630028,-0.541184 -0.93039,-0.824685 -0.296203,-0.0052 -0.274,-0.246076 -0.416728,-0.355349 -0.102157,-0.401331 -0.217258,-0.802905 -0.394749,-1.191212 -0.129865,-0.04211 0.128419,0.0328 -0.05323,0.160776 -0.04733,0.03334 -0.0159,-0.189378 -0.02278,-0.413297 -0.0012,-0.03981 -10e-4,-0.07964 -0.0015,-0.11946 0.01404,-0.326281 0.105007,-0.644527 0.135202,-0.970076 0.0093,-0.536985 0.04525,-1.07225 -0.0663,-1.606021 -0.04229,-0.248637 -0.135764,-0.433567 -0.01081,-0.677873 0.137898,-0.670938 0.2641,-1.371822 -0.155636,-2.011431 -0.121987,-0.132136 -0.0401,-0.0658 -0.03496,0.09991 0.02456,0.791242 0.05206,0.519711 -0.335717,1.323631 -0.09185,0.190413 -0.0804,0.157861 -0.212689,0.344482 0.02991,0.01799 0.05071,0.0563 0.08973,0.05395 0.124261,-0.0075 0.237757,-0.05367 0.356475,-0.08086 0.424542,-0.09724 0.847516,-0.162935 1.219039,-0.35601 0.380606,-0.128225 -2.166107,-3.96087 -2.546713,-3.832645 z" />
  </g>
</svg>
