<?xml version="1.0" encoding="UTF-8" standalone="no"?>
<!-- Created with Inkscape (http://www.inkscape.org/) -->

<svg
   width="83.60099mm"
   height="75.139847mm"
   viewBox="0 0 83.60099 75.139847"
   version="1.1"
   id="svg5"
   inkscape:version="1.1.1 (1:1.1+202109281949+c3084ef5ed)"
   sodipodi:docname="unknown.svg"
   xmlns:inkscape="http://www.inkscape.org/namespaces/inkscape"
   xmlns:sodipodi="http://sodipodi.sourceforge.net/DTD/sodipodi-0.dtd"
   xmlns="http://www.w3.org/2000/svg"
   xmlns:svg="http://www.w3.org/2000/svg">
  <sodipodi:namedview
     id="namedview7"
     pagecolor="#ffffff"
     bordercolor="#666666"
     borderopacity="1.0"
     inkscape:pageshadow="2"
     inkscape:pageopacity="0.0"
     inkscape:pagecheckerboard="0"
     inkscape:document-units="mm"
     showgrid="false"
     inkscape:zoom="1.2810466"
     inkscape:cx="282.19114"
     inkscape:cy="184.61468"
     inkscape:window-width="1553"
     inkscape:window-height="972"
     inkscape:window-x="59"
     inkscape:window-y="39"
     inkscape:window-maximized="0"
     inkscape:current-layer="layer1" />
  <defs
     id="defs2">
    <inkscape:path-effect
       effect="skeletal"
       id="path-effect3100"
       is_visible="true"
       lpeversion="1"
       pattern="M 0,4.9921381 C 0,2.2364779 2.2364779,0 4.9921381,0 c 2.7556603,0 4.9921382,2.2364779 4.9921382,4.9921381 0,2.7556603 -2.2364779,4.9921382 -4.9921382,4.9921382 C 2.2364779,9.9842763 0,7.7477984 0,4.9921381 Z"
       copytype="single_stretched"
       prop_scale="1"
       scale_y_rel="false"
       spacing="0"
       normal_offset="0"
       tang_offset="0"
       prop_units="false"
       vertical_pattern="false"
       hide_knot="false"
       fuse_tolerance="0" />
    <inkscape:path-effect
       effect="spiro"
       id="path-effect3098"
       is_visible="true"
       lpeversion="1" />
    <inkscape:path-effect
       effect="skeletal"
       id="path-effect3061"
       is_visible="true"
       lpeversion="1"
       pattern="M 0,4.9921381 C 0,2.2364779 2.2364779,0 4.9921381,0 c 2.7556603,0 4.9921382,2.2364779 4.9921382,4.9921381 0,2.7556603 -2.2364779,4.9921382 -4.9921382,4.9921382 C 2.2364779,9.9842763 0,7.7477984 0,4.9921381 Z"
       copytype="single_stretched"
       prop_scale="1"
       scale_y_rel="false"
       spacing="0"
       normal_offset="0"
       tang_offset="0"
       prop_units="false"
       vertical_pattern="false"
       hide_knot="false"
       fuse_tolerance="0" />
    <inkscape:path-effect
       effect="spiro"
       id="path-effect3059"
       is_visible="true"
       lpeversion="1" />
    <inkscape:path-effect
       effect="skeletal"
       id="path-effect2896"
       is_visible="true"
       lpeversion="1"
       pattern="M 0,4.9921381 C 0,2.2364779 2.2364779,0 4.9921381,0 c 2.7556603,0 4.9921382,2.2364779 4.9921382,4.9921381 0,2.7556603 -2.2364779,4.9921382 -4.9921382,4.9921382 C 2.2364779,9.9842763 0,7.7477984 0,4.9921381 Z"
       copytype="single_stretched"
       prop_scale="1"
       scale_y_rel="false"
       spacing="0"
       normal_offset="0"
       tang_offset="0"
       prop_units="false"
       vertical_pattern="false"
       hide_knot="false"
       fuse_tolerance="0" />
    <inkscape:path-effect
       effect="skeletal"
       id="path-effect2890"
       is_visible="true"
       lpeversion="1"
       pattern="M 0,4.9921381 C 0,2.2364779 2.2364779,0 4.9921381,0 c 2.7556603,0 4.9921382,2.2364779 4.9921382,4.9921381 0,2.7556603 -2.2364779,4.9921382 -4.9921382,4.9921382 C 2.2364779,9.9842763 0,7.7477984 0,4.9921381 Z"
       copytype="single_stretched"
       prop_scale="1"
       scale_y_rel="false"
       spacing="0"
       normal_offset="0"
       tang_offset="0"
       prop_units="false"
       vertical_pattern="false"
       hide_knot="false"
       fuse_tolerance="0" />
    <inkscape:path-effect
       effect="skeletal"
       id="path-effect2840"
       is_visible="true"
       lpeversion="1"
       pattern="M 0,4.9921381 C 0,2.2364779 2.2364779,0 4.9921381,0 c 2.7556603,0 4.9921382,2.2364779 4.9921382,4.9921381 0,2.7556603 -2.2364779,4.9921382 -4.9921382,4.9921382 C 2.2364779,9.9842763 0,7.7477984 0,4.9921381 Z"
       copytype="single_stretched"
       prop_scale="1"
       scale_y_rel="false"
       spacing="0"
       normal_offset="0"
       tang_offset="0"
       prop_units="false"
       vertical_pattern="false"
       hide_knot="false"
       fuse_tolerance="0" />
    <inkscape:path-effect
       effect="skeletal"
       id="path-effect2834"
       is_visible="true"
       lpeversion="1"
       pattern="M 0,4.9921381 C 0,2.2364779 2.2364779,0 4.9921381,0 c 2.7556603,0 4.9921382,2.2364779 4.9921382,4.9921381 0,2.7556603 -2.2364779,4.9921382 -4.9921382,4.9921382 C 2.2364779,9.9842763 0,7.7477984 0,4.9921381 Z"
       copytype="single_stretched"
       prop_scale="1"
       scale_y_rel="false"
       spacing="0"
       normal_offset="0"
       tang_offset="0"
       prop_units="false"
       vertical_pattern="false"
       hide_knot="false"
       fuse_tolerance="0" />
    <inkscape:path-effect
       effect="skeletal"
       id="path-effect2828"
       is_visible="true"
       lpeversion="1"
       pattern="M 0,4.9921381 C 0,2.2364779 2.2364779,0 4.9921381,0 c 2.7556603,0 4.9921382,2.2364779 4.9921382,4.9921381 0,2.7556603 -2.2364779,4.9921382 -4.9921382,4.9921382 C 2.2364779,9.9842763 0,7.7477984 0,4.9921381 Z"
       copytype="single_stretched"
       prop_scale="2.5"
       scale_y_rel="false"
       spacing="0"
       normal_offset="0"
       tang_offset="0"
       prop_units="false"
       vertical_pattern="false"
       hide_knot="false"
       fuse_tolerance="0" />
    <inkscape:path-effect
       effect="skeletal"
       id="path-effect2822"
       is_visible="true"
       lpeversion="1"
       pattern="M 0,4.9921381 C 0,2.2364779 2.2364779,0 4.9921381,0 c 2.7556603,0 4.9921382,2.2364779 4.9921382,4.9921381 0,2.7556603 -2.2364779,4.9921382 -4.9921382,4.9921382 C 2.2364779,9.9842763 0,7.7477984 0,4.9921381 Z"
       copytype="single_stretched"
       prop_scale="1"
       scale_y_rel="false"
       spacing="0"
       normal_offset="0"
       tang_offset="0"
       prop_units="false"
       vertical_pattern="false"
       hide_knot="false"
       fuse_tolerance="0" />
    <inkscape:path-effect
       effect="skeletal"
       id="path-effect2816"
       is_visible="true"
       lpeversion="1"
       pattern="M 0,4.9921381 C 0,2.2364779 2.2364779,0 4.9921381,0 c 2.7556603,0 4.9921382,2.2364779 4.9921382,4.9921381 0,2.7556603 -2.2364779,4.9921382 -4.9921382,4.9921382 C 2.2364779,9.9842763 0,7.7477984 0,4.9921381 Z"
       copytype="single_stretched"
       prop_scale="1"
       scale_y_rel="false"
       spacing="0"
       normal_offset="0"
       tang_offset="0"
       prop_units="false"
       vertical_pattern="false"
       hide_knot="false"
       fuse_tolerance="0" />
    <inkscape:path-effect
       effect="skeletal"
       id="path-effect2777"
       is_visible="true"
       lpeversion="1"
       pattern="M 0,4.9921381 C 0,2.2364779 2.2364779,0 4.9921381,0 c 2.7556603,0 4.9921382,2.2364779 4.9921382,4.9921381 0,2.7556603 -2.2364779,4.9921382 -4.9921382,4.9921382 C 2.2364779,9.9842763 0,7.7477984 0,4.9921381 Z"
       copytype="single_stretched"
       prop_scale="1"
       scale_y_rel="false"
       spacing="0"
       normal_offset="0"
       tang_offset="0"
       prop_units="false"
       vertical_pattern="false"
       hide_knot="false"
       fuse_tolerance="0" />
    <inkscape:path-effect
       effect="spiro"
       id="path-effect2775"
       is_visible="true"
       lpeversion="1" />
    <inkscape:path-effect
       effect="bspline"
       id="path-effect2738"
       is_visible="true"
       lpeversion="1"
       weight="33.333333"
       steps="2"
       helper_size="0"
       apply_no_weight="true"
       apply_with_weight="true"
       only_selected="false" />
  </defs>
  <g
     inkscape:label="Layer 1"
     inkscape:groupmode="layer"
     id="layer1"
     transform="translate(-1.2919564,-1.1747653)">
    <path
       style="fill:#6f54a7;stroke-width:0.108878"
       d="m 24.897096,66.356911 c 12.797398,-0.01136 33.738594,-0.01136 46.535992,0 12.797396,0.01136 2.326799,0.02066 -23.267996,0.02066 -25.594796,0 -36.065393,-0.0093 -23.267996,-0.02066 z"
       id="path898" />
    <path
       style="fill:#ff0000;stroke:none;stroke-width:0.264583px;stroke-linecap:butt;stroke-linejoin:miter;stroke-opacity:1"
       d="m 25.836222,21.984021 c -0.441016,-0.540711 0.163664,-1.805796 1.099954,-3.770014 0,0 1e-6,-10e-7 1e-6,-10e-7 0.135423,-0.309582 0.400595,-0.762919 0.947405,-1.315313 0.821623,-0.701971 1.593798,-1.124954 1.782502,-1.346638 -1e-6,1e-6 0,0 0,0 0.179339,-0.216097 0.738632,-0.926799 2.140597,-1.710543 1.101735,-0.492129 1.921392,-0.698103 2.42242,-0.849211 0.741027,-0.25914 1.668838,-0.713507 3.001336,-1.165347 2.406736,-0.917244 5.761708,-1.422064 9.584928,-0.156965 2.09409,0.827845 3.324368,1.750477 3.769256,1.72052 0.05642,0.01079 0.247403,0.05544 0.570489,0.154416 1.181873,0.305164 2.521053,1.007055 3.874554,2.233911 0,0 6e-6,5e-6 6e-6,5e-6 0.650951,0.622764 1.217693,1.416571 1.664005,2.377968 0.444602,0.958288 0.669439,2.061817 0.636377,3.27867 0,0 0,10e-6 0,10e-6 0.05638,0.645161 -0.02172,0.35665 -0.111367,-0.784239 -0.294492,-0.812441 -0.412204,-1.161754 -0.39709,-1.025485 0.129695,0.08493 0.412859,0.650094 0.806201,1.720721 0.248745,1.502291 0.27219,2.346241 0.153678,2.494584 -0.07511,0.775216 -0.05334,1.864207 -0.155422,3.28798 -0.05437,1.397483 -0.368605,3.106076 -1.163965,5.008585 -1.025094,2.022266 -2.402214,3.655807 -3.978959,4.869715 -0.973479,0.749464 -2.00783,1.327154 -3.057988,1.738147 -3.721485,1.666859 -7.86696,1.876983 -11.678737,0.700597 -0.390685,-0.1362 -0.77661,-0.281013 -1.157424,-0.434102 0.326085,0.162007 0.658454,0.217395 1.024526,0.17847 0.42683,0.02155 -0.135493,0.03945 -1.634909,-0.11098 -0.991213,-0.260725 -1.569254,-0.488179 -1.754346,-0.637958 0,0 -4e-6,-2e-6 -4e-6,-2e-6 -0.216422,-0.07701 -0.03872,-0.04431 0.487987,0.132074 0.787741,0.08232 1.118631,0.122692 1.03128,0.05359 -0.176913,0.0059 -0.758847,0.118966 -1.726011,0.20721 -1.020216,0.171479 -2.392746,-0.0685 -3.98744,-0.790375 -0.271458,-0.04831 0.152745,0.06493 1.254056,0.372531 0,0 4.5e-5,1.3e-5 4.5e-5,1.3e-5 0.588008,0.123177 1.324557,0.02999 2.214041,-0.273806 0.944135,-0.325524 1.721708,-1.07082 2.345184,-2.236501 0.377285,-1.097757 0.506713,-1.827291 0.381948,-2.197465 0,0 -1.1e-5,-3.3e-5 -1.1e-5,-3.3e-5 -0.04069,-0.34644 -0.03343,-0.292449 0.01233,0.161014 0.0016,1.604538 -0.421491,2.818149 -1.228543,3.622428 0,0 -2e-5,1.9e-5 -2e-5,1.9e-5 -0.74966,0.758642 -1.411657,1.21479 -1.967074,1.38489 0,0 -1.5e-5,4e-6 -1.5e-5,4e-6 -1.102442,0.409805 -1.147784,0.33828 -0.411792,0.05781 0,0 1e-5,-6e-6 1e-5,-6e-6 0.854272,-0.522141 1.356085,-1.08048 1.556061,-1.738182 0.184704,-0.622296 0.23589,-1.070549 0.141753,-1.393492 -0.252657,-0.580133 -0.176008,-0.594013 0.0053,-0.0085 0.500489,1.0501 0.916223,2.057927 1.273697,2.922807 0.300753,0.719288 0.628173,1.480259 0.949084,2.373327 0.435928,1.016321 0.399266,1.500756 0.363842,1.430622 -0.127116,0.03503 0.327247,0.388358 1.01711,1.131202 0.378083,0.382562 0.75518,0.923284 1.093828,1.603141 0.369271,0.720117 0.509565,1.610668 0.420133,2.596352 -0.05235,0.356699 -0.08824,0.445236 -0.08451,0.295905 0.05359,-0.167182 -0.0449,-0.554991 -0.258112,-1.158265 -0.237828,-0.442272 -0.488579,-0.743134 -0.761434,-0.915627 -0.26467,-0.171176 -0.460145,-0.26779 -0.597708,-0.291424 -0.271407,-0.04214 -0.186893,-0.01874 0.197753,0.113327 0.65662,0.20233 1.269249,0.598569 1.803915,1.14433 0.573979,0.587499 0.910109,1.356713 1.021438,2.21703 0.03489,0.389024 0.0034,0.448698 -0.04536,0.231231 l 0,0 -10e-7,-4e-6 0,0 c -0.02441,-0.115035 -0.103,-0.287214 -0.2272,-0.515476 l 0,0 c -0.126743,-0.241394 -0.36097,-0.473785 -0.693699,-0.705503 l 0,0 C 39.289013,48.0369 39.162561,47.973074 39.376045,48.094986 l 0,0 c 0.119695,0.0346 0.320963,0.129541 0.596131,0.285337 l 1e-6,0 1.3e-5,1.6e-5 1e-6,0 c 0.341538,0.40833 0.682205,0.950701 1.015262,1.61917 0,0 1.3e-5,2.7e-5 1.3e-5,2.7e-5 l 1e-6,10e-7 c -1e-6,-10e-7 0,6e-6 0,6e-6 0.0091,0.08076 0.01657,0.157493 0.02278,0.229656 0,0 0,6e-6 0,6e-6 0.0053,0.0612 0.0096,0.119181 0.01321,0.173612 0.0046,0.07095 0.008,0.134253 0.01074,0.191663 0.002,0.04225 0.0037,0.08156 0.0052,0.117692 0.007,0.182446 0.0121,0.285655 0.03796,0.325371 l 0,0 c 0,0 -10e-7,-6e-6 -10e-7,-6e-6 -0.03942,-0.566481 -0.178768,-0.900656 -0.415887,-1.08599 l 0,0 c -0.227827,-0.173307 -0.34766,-0.229123 -0.406097,-0.191212 0,0 -10e-7,0 -10e-7,0 -0.09639,0.05547 0.329336,0.263876 0.897888,0.662255 0.407824,0.341411 0.646039,0.681403 0.777687,0.983724 0.152791,0.338436 0.214441,0.609493 0.238351,0.817192 0.142599,1.121661 -0.02624,1.808526 -0.428724,2.008297 -0.407104,0.202063 -1.031895,-0.08835 -1.868774,-0.734875 -0.157191,-0.118143 -0.302031,-0.218659 -0.412097,-0.230821 -0.100218,-0.0048 -0.152597,0.02537 -0.115571,0.142527 0.06929,0.09057 -0.115282,0.196673 -0.811399,-0.03258 0,0 -2e-6,-10e-7 -2e-6,-10e-7 -0.327859,-0.09087 -0.714904,-0.318799 -1.143154,-0.736067 l 0,-1e-6 c -0.426986,-0.416662 -0.695364,-1.057228 -0.710823,-1.938042 0,0 0,-9e-6 0,-9e-6 l 0,0 c 0.03573,-0.09194 0.07756,-0.118178 0.100842,-0.07292 0.005,0.0053 0.0088,0.017 0.01163,0.03166 0.0038,0.02083 0.0058,0.04731 0.0054,0.0798 -7.68e-4,0.02288 -0.0028,0.05144 -0.0067,0.08411 0,0 -1e-6,3e-6 -1e-6,3e-6 -0.0045,0.03852 -0.01151,0.08276 -0.02126,0.133431 0,0 -10e-7,5e-6 -10e-7,5e-6 l 0,0 c 0,0 1.2e-5,2.4e-5 1.2e-5,2.4e-5 0.29165,0.602196 0.571317,1.092034 0.844694,1.46048 l 0,0 1.1e-5,1.5e-5 0,1e-6 c 0.20771,0.116393 0.334965,0.184189 0.379187,0.195689 l 0,0 c 0.06301,0.07513 -0.217793,-0.01759 -0.868661,-0.337484 l 0,0 C 36.698133,51.982786 36.389282,51.66177 36.20808,51.320815 l 0,0 C 36.03012,50.99427 35.917003,50.713718 35.869726,50.487482 l 0,0 -2e-6,-6e-6 0,0 c -0.09422,-0.438472 -0.124465,-0.600182 -0.125164,-0.439705 0.03346,0.364745 0.109532,0.659746 0.299892,0.881426 0.170021,0.198109 0.313816,0.347539 0.460093,0.414566 0.07642,0.04991 -0.153863,0.03454 -0.733153,-0.118954 -0.286882,-0.07792 -0.627888,-0.246355 -1.019698,-0.51617 -0.398452,-0.269934 -0.757055,-0.695674 -1.060836,-1.284746 -0.298437,-0.792999 -0.40843,-1.396747 -0.337308,-1.774524 0.02096,-0.357795 0.02854,-0.472301 -0.0053,-0.32706 -0.03956,0.411385 -0.04747,0.711374 0.04248,0.900378 0.0696,0.168263 0.0636,0.256503 0.0066,0.227507 -0.127091,-0.03652 -0.708978,-0.318309 -1.648735,-1.167146 -1.183349,-1.317346 -1.807921,-2.461436 -2.1146,-3.113191 -0.293492,-0.491421 -0.67931,-1.058015 -1.116284,-1.757406 -0.533343,-0.846509 -1.079701,-1.747368 -1.578349,-2.490011 -0.342866,-0.361101 -0.827301,-1.319402 -1.226728,-3.002354 -0.163402,-0.857611 -0.07199,-1.866311 0.316142,-2.995695 0.400796,-1.158296 1.271206,-2.163422 2.613662,-2.930714 0,0 1.5e-5,-9e-6 1.5e-5,-9e-6 1.207112,-0.511437 1.559344,-0.600254 0.946675,-0.39267 0,0 -9e-6,2e-6 -9e-6,2e-6 -0.335637,0.07839 -0.787324,0.407223 -1.380016,0.985131 0,0 -1.6e-5,1.5e-5 -1.6e-5,1.5e-5 -0.650958,0.624544 -0.97429,1.600247 -0.99074,2.966137 0.04042,0.383231 0.03288,0.369986 -0.01404,-0.04671 0,0 -1.2e-5,-3.9e-5 -1.2e-5,-3.9e-5 -0.130898,-0.439645 0.0017,-1.241648 0.40832,-2.402807 0.655958,-1.235971 1.49679,-2.03518 2.512938,-2.389517 0.961405,-0.332575 1.77802,-0.430844 2.442839,-0.296706 0,0 5.1e-5,1.3e-5 5.1e-5,1.3e-5 1.254288,0.329397 1.816056,0.524911 1.681954,0.548447 -0.723308,-0.266745 -1.064567,-0.428123 -1.087104,-0.349189 0.01163,-0.0025 0.396123,-0.134606 1.208621,-0.274876 0.425491,-0.144573 1.287711,-0.15286 2.583458,0.05359 0.890462,0.265597 1.395168,0.467667 1.51584,0.558864 0,0 3e-6,0 3e-6,0 0.146707,0.01605 -0.09219,-0.04741 -0.716836,-0.238598 -0.940984,-0.0471 -0.982079,-0.142257 0.01739,-0.11098 0.93625,-0.02951 1.838924,0.167328 2.676816,0.591542 0.02678,-0.0035 0.05415,-0.01044 0.0818,-0.02103 1.417229,0.393843 3.236593,0.16404 4.844213,-0.538625 0.402465,-0.234655 0.792442,-0.464072 1.118171,-0.68119 0.530528,-0.353629 0.890429,-0.674008 0.932504,-0.97242 0.178616,-0.217041 0.246866,-0.840532 0.390822,-1.710933 0.102048,-0.910294 0.14956,-2.139565 0.355158,-3.623934 -0.06673,-0.264712 0.0147,0.152066 0.153679,1.255362 0.311128,0.77153 0.423837,1.072521 0.387505,0.897025 -0.151638,-0.124845 -0.436284,-0.74219 -0.804544,-1.854085 -0.190931,-1.566244 -0.18794,-2.234366 -0.111367,-2.023459 0,0 0,3e-6 0,3e-6 0.0095,0.426659 0.07263,0.738473 0.207999,0.979069 0.133057,0.234417 0.236964,0.374864 0.340658,0.440124 0,0 10e-7,0 10e-7,0 0.23258,0.08768 0.129517,0.06141 -0.156746,-0.137812 -0.0897,-0.0424 -0.317904,-0.123483 -0.668735,-0.258658 -2.433616,-1.061312 -3.545665,-2.110519 -4.079142,-2.410216 -0.836662,-0.725157 -2.704002,-0.675839 -4.459578,-0.570039 -0.995781,0.119182 -2.239595,0.372504 -3.607846,0.486947 -0.83989,0.09101 -1.232405,-0.0058 -1.295242,-0.02306 -0.144574,-0.161746 -0.873463,0.329699 -1.990139,0.767898 0,0 -2e-6,0 -2e-6,0 -0.985916,0.3908 -1.427954,0.325991 -1.522088,0.305658 -0.102738,-0.06643 -0.350816,0.100221 -0.689055,0.321135 0,0 -1e-6,10e-7 -1e-6,10e-7 -2.124866,1.479071 -3.627607,1.667006 -4.040358,1.16095 z"
       id="path3057"
       inkscape:path-effect="#path-effect3059;#path-effect3061"
       inkscape:original-d="m 25.836222,21.984021 c 0.594624,-1.041732 1.521512,-2.019474 2.570157,-2.465483 0.354947,-0.150965 0.517036,-0.577269 0.81823,-0.818224 0.470677,-0.376543 1.169691,-0.464194 1.652296,-0.826148 0.577003,-0.432752 1.369407,-0.960836 2.065369,-1.239221 0.482312,-0.192925 1.338477,-0.282985 1.85883,-0.413074 1.072529,-0.268131 2.208679,-0.689158 3.304591,-0.826147 1.607375,-0.200922 5.501502,-0.131408 7.022253,0.206537 1.5821,0.351577 2.556838,1.305722 3.924199,2.065368 0.190312,0.105729 0.438468,0.08577 0.619612,0.206537 0.941022,0.627349 2.530975,2.222967 2.891515,3.30459 0.06531,0.195938 -0.04051,0.417084 0,0.61961 0.06038,0.301908 0.315711,0.534061 0.413075,0.826148 0.06531,0.195938 -0.03396,0.415884 0,0.61961 0.428951,2.573708 -0.231481,4.412099 -1.032684,6.815717 -0.58175,1.74525 -2.901022,3.51469 -4.543811,4.130736 -1.739879,0.652457 -6.394876,0.886269 -8.261475,0.619611 -0.215521,-0.03079 -0.413073,-0.137691 -0.619612,-0.206536 -0.275381,-0.06885 -0.54448,-0.171328 -0.826145,-0.206536 -0.273257,-0.03416 -0.553535,0.03894 -0.826148,0 -1.389351,-0.19848 0.01614,-0.149297 -1.032685,-0.413076 -0.127021,-0.03195 -0.633061,0.08443 -0.776089,0 -0.790355,-0.466518 -2.053958,-0.20584 -2.917484,0.02045 -0.132921,0.03483 -0.289377,-0.06155 -0.412228,0 -0.06155,0.03084 0.04868,0.157856 0,0.206537 -0.193847,0.193847 -1.039022,0.501658 -1.091669,0.753266 -0.101872,0.486852 -0.178517,2.358755 0,2.894309 0.224735,0.674206 0.99816,2.135923 1.426023,2.706409 0.501607,0.668806 0.415178,1.447861 1.032684,2.065367 0.638855,0.638858 0.734634,1.515028 1.239221,2.271906 0.130837,0.196252 2.014749,2.583738 2.065369,2.684978 0.09237,0.184732 -0.129021,0.458332 0,0.619612 0.192337,0.240419 0.569971,0.242289 0.826149,0.413073 0.40505,0.270036 0.762648,0.627634 1.032684,1.032684 0.120761,0.181145 0.07591,0.445445 0.206537,0.619612 0.09237,0.123153 0.32553,0.07991 0.413072,0.206536 0.07411,0.107196 -0.04258,0.267793 0,0.390962 0.06502,0.18809 1.182167,0.822931 1.37064,1.045871 0.262512,0.310523 0.552505,0.602226 0.771853,0.944605 0.131419,0.205132 0.552918,1.221399 0.720024,1.371584" />
    <path
       style="fill:#ff0000;stroke:none;stroke-width:0.264583px;stroke-linecap:butt;stroke-linejoin:miter;stroke-opacity:1"
       d="m 47.458289,62.153486 c 0.438806,1.335747 0.0077,3.143046 0.769928,3.715192 0.111579,0.09451 0.233343,0.08906 0.386733,-0.07644 0.146201,-0.161979 0.221034,-0.436935 0.197633,-0.891672 -0.105309,-0.50747 -0.18996,-0.898769 -0.321845,-1.068863 -0.09427,-0.157363 -0.04325,-0.242206 0.170705,-0.168747 0.330896,0.02494 0.346092,0.02263 0.005,-0.131571 -0.413804,-0.19503 -0.997201,-0.0184 -1.961108,0.515965 -0.02136,0.02026 -0.04165,0.03935 -0.06087,0.05725 -0.286717,0.26717 -0.371503,0.298094 -0.0065,-0.03723 0.490704,-0.51827 0.749432,-0.707467 0.743004,-0.672475 -0.07355,0.02002 -0.14592,0.422499 -0.310102,1.11717 0.01691,0.541683 0.018,0.490358 0.103592,-0.06326 -0.05823,-0.611229 0.251328,-1.68954 0.927612,-3.055768 0.20595,-0.320194 0.266294,-0.376071 0.180911,-0.196666 -0.131424,0.171225 -0.257976,0.641785 -0.394881,1.386372 -0.06147,0.996854 0.134631,1.794408 0.569207,2.428758 0,0 3e-6,5e-6 3e-6,5e-6 0.432056,0.620822 0.886617,1.028182 1.371322,1.24912 1.011093,0.359073 1.564331,0.437103 1.791862,0.263481 0,0 10e-7,0 10e-7,0 0.05435,0.0081 -0.347495,-0.02937 -1.437509,-0.197816 -1.000029,-0.335528 -1.649974,-0.751768 -1.997674,-1.212422 0,0 -3e-6,-3e-6 -3e-6,-3e-6 -0.360146,-0.43695 -0.525473,-0.707899 -0.540783,-0.829168 -0.03994,-0.105916 0.07935,-0.05073 0.310488,0.141442 0.238212,0.235648 0.715552,0.424211 1.369773,0.593596 0.857175,0.01523 0.997863,-0.0019 0.615732,-0.100153 -0.903765,-0.155764 -1.29307,-0.400764 -1.44075,-0.621 -0.185755,-0.200291 -0.03852,-0.488425 0.07148,-0.699677 0,0 0,-10e-7 0,-10e-7 0.36238,-0.753459 -0.665979,-1.142843 -1.112964,-1.445426 -0.328664,-0.222485 -1.28207,-1.402285 0.361953,-2.4198 10e-7,0 10e-7,-10e-7 10e-7,-10e-7 0.577297,-0.31864 1.20722,-0.524269 1.637353,-0.626668 0.324408,-0.138041 0.459426,-0.255688 0.122082,-0.442597 -0.140165,-0.111035 0.24229,-0.176469 1.349555,-0.100153 0.848139,0.217587 1.500329,0.521893 1.887598,0.903706 0.374036,0.332249 0.612361,0.553287 0.693317,0.616343 0.10141,0.04123 0.05528,-0.06286 -0.155481,-0.356401 0,0 -2e-6,-2e-6 -2e-6,-2e-6 -0.203422,-0.32232 -0.676566,-0.620755 -1.475189,-0.910809 -0.827071,-0.113342 -1.133619,-0.199523 -0.805394,-0.197816 0,0 2e-6,0 2e-6,0 0.59276,-0.198611 1.541659,-0.0911 2.88562,0.459514 0.645825,0.313628 1.244097,0.852003 1.772685,1.636289 0,0 5e-6,6e-6 5e-6,6e-6 0.529099,0.79443 0.772994,1.784641 0.687218,2.969685 -0.155919,0.891703 -0.34376,1.501281 -0.549331,1.803526 -0.158683,0.309074 -0.183215,0.374616 -0.05058,0.186432 0.381586,-0.834746 0.628876,-1.276828 0.572534,-1.249258 0.08612,0.06043 0.14208,0.6241 0.0456,1.794348 -0.314176,1.5172 -0.828409,2.67706 -1.456474,3.37568 -0.536076,0.684206 -0.906409,1.07812 -1.00214,1.199749 -0.03849,0.0986 -0.401935,0.489413 -1.157721,1.132113 -0.04498,0.03825 -0.0913,0.07735 -0.138972,0.11728 -1.909049,1.241083 -3.727744,1.602322 -5.258908,1.266697 -1.525725,-0.306256 -2.57905,-0.786099 -3.241897,-1.290487 -0.512928,-0.316127 -1.138766,-0.820834 -1.80786,-1.504793 -0.745245,-0.732081 -1.302893,-1.789702 -1.642968,-3.032489 -0.222307,-1.07707 -0.170343,-1.998866 0.058,-2.761513 0.242897,-0.81919 0.576456,-1.429621 0.939445,-1.877092 2.929532,-3.743567 5.505471,-1.374829 5.729954,-0.691491 z"
       id="path3096"
       inkscape:path-effect="#path-effect3098;#path-effect3100"
       inkscape:original-d="m 47.458289,62.153486 c -0.990221,0.372894 -2.217364,1.095669 -2.480013,2.203342 -0.07974,0.336307 -0.459563,1.497878 -0.206537,1.835245 0.384003,0.512003 1.015855,1.397453 1.649844,1.649836 0.373655,0.148749 2.871573,0.40327 3.272343,0.204092 0.259482,-0.128961 0.429215,-0.392044 0.614669,-0.614683 0.378706,-0.454634 1.221296,-1.504212 1.445758,-2.065367 0.149802,-0.374507 0.09261,-1.71822 0.206536,-1.832057 0.01397,-0.01397 0.410742,-0.182467 0.192969,-0.400126 -0.07604,-0.076 -0.615358,-0.495218 -0.806567,-0.562065 -0.09945,-0.03477 -0.224004,0.05124 -0.316058,0 -0.42092,-0.234291 -0.661045,-0.497811 -0.904221,-0.779696 -0.07989,-0.0926 -0.244608,0 -0.366911,0 -0.375222,0 -1.159211,-0.354115 -1.564354,-0.125706 -0.256641,0.144688 -0.491639,0.324789 -0.737458,0.487185 z" />
    <path
       style="opacity:0.98;fill:#ff0000;stroke-width:0.264999;stroke-dasharray:6.36, 0.264999;paint-order:stroke fill markers"
       id="path3168"
       d="m 29.421096,20.815895 c -0.637738,-0.374278 -1.374365,-0.599042 -2.11089,-0.667641 -0.0853,-0.01049 -0.182136,-0.07558 -0.255905,-0.03148 -0.07254,0.04336 0.243165,0.302904 0.350531,0.490817 0.278504,0.487436 0.349119,0.8598 0.340403,1.402067 0.143812,-0.615536 0.185064,-1.249987 0.253276,-1.877503 0.0026,-0.448269 -0.01595,-0.897129 -0.03154,-1.345275 -0.01278,-0.367671 -0.04444,-0.191448 0.0049,-0.399431 0.0593,-0.31173 0.02204,-0.110833 0.03765,-0.11445 0.0029,-6.62e-4 0.282379,-0.449326 -0.06898,0.11248 0.624575,-0.408364 1.173882,-0.919332 1.676098,-1.468506 0.217292,-0.377649 0.617498,-0.561929 0.925277,-0.84253 0.122989,-0.112127 0.222689,-0.247561 0.33976,-0.365853 0.162607,-0.164304 0.338386,-0.31504 0.505915,-0.474323 0.163382,-0.157695 0.369488,-0.391191 0.618995,-0.418322 0.395237,-0.04298 -0.360087,0.305202 0.370774,-0.02694 0.129511,-0.05886 0.245586,-0.143652 0.368379,-0.215477 0.393242,-0.0064 0.759312,-0.192949 1.140645,-0.254145 0.201245,-0.0323 0.407639,-0.0098 0.611011,-0.02328 0.710231,-0.04111 1.343408,-0.424683 2.025853,-0.557205 -0.02275,-0.06743 0.3277,0.06044 0.243986,0.07644 -0.285374,0.05452 -1.159539,0.04883 -0.869342,0.06287 0.944388,0.0457 1.738572,-0.02676 2.639976,-0.140463 0.489288,-0.02587 0.92067,-0.295219 1.384165,-0.407654 0.272894,-0.0662 0.564446,0.03004 0.822105,0.09947 -0.239942,0.02154 -0.533757,-0.08839 -0.719825,0.06462 -0.145111,0.119333 0.372557,0.04961 0.559612,0.06713 0.824614,0.07724 0.420614,0.01813 1.252683,0.06184 0.159179,0.0084 1.269294,0.09731 1.403009,0.107887 0.241085,9e-4 0.48219,0.0058 0.723257,0.0027 0.631028,-0.0082 1.262356,-0.01027 1.89289,-0.03657 0.604962,-0.02523 1.215763,-0.157278 1.81791,-0.224861 0.760814,0.0068 -0.0093,0.007 0.709829,-0.01324 0.111908,-0.0032 0.447794,-0.0033 0.335844,-0.0025 -1.555917,0.01174 -0.630365,-0.0053 -0.283515,0.0416 0.728348,0.115807 1.438707,0.277019 2.103329,0.598867 0.37936,0.128336 0.746231,0.326521 1.132724,0.433189 0.04882,0.01347 0.102023,-0.007 0.151926,0.0017 0.11211,0.01939 0.287375,0.142726 0.359246,0.185453 0.06529,-0.09289 0.01495,-0.03336 0.1959,0.192615 0.219258,0.273812 0.213043,0.321271 0.469048,0.581258 0.09966,0.101209 0.477502,0.435391 0.619911,0.562177 0.385419,0.423712 0.66956,0.956605 1.099442,1.340676 0.244795,0.447682 0.336653,0.919806 0.376462,1.42417 0.01812,0.72612 0.214334,1.431179 0.279244,2.151058 -0.0094,0.536019 -0.04338,1.068316 -0.02257,1.604688 -0.0019,0.577098 -0.09868,1.146463 -0.167664,1.716953 -0.0067,0.08722 -0.0016,0.176179 -0.02016,0.26165 -0.01593,0.0731 -0.05837,0.137914 -0.08231,0.208791 -0.339358,1.112217 0.108516,-0.322751 -0.231077,0.67061 -0.159049,0.465247 -0.134498,0.428753 -0.226576,0.91105 -0.122404,0.492824 0.05992,1.066191 -0.156546,1.540696 -0.01617,0.03544 -0.07773,-0.0052 -0.116596,-0.0078 -0.284168,0.445743 -0.322054,0.978791 -0.458748,1.473671 -0.271013,0.258947 -0.366416,0.647025 -0.557739,0.955659 -0.0095,0.01529 -0.04139,-0.01588 -0.05389,-0.0029 -0.05591,0.05784 -0.09067,0.132913 -0.135996,0.199371 -0.297161,0.431824 -0.6375,0.833197 -0.991132,1.219407 -0.171944,0.14946 -0.627059,0.694409 -0.833543,0.701598 -0.455432,-0.08987 -0.806058,0.320416 -1.182052,0.508254 -0.67994,0.33968 0.439737,-0.371523 -0.507484,0.265401 -0.177091,0.02098 -0.321385,0.16097 -0.49593,0.191699 -0.03707,0.0065 -0.07348,-0.0164 -0.110215,-0.02461 -0.08758,0.0098 -0.17599,0.014 -0.262731,0.02956 -0.22479,0.04038 -0.517658,0.119026 -0.742948,0.176668 -0.363892,0.21962 -0.603908,0.186978 -0.993891,0.124015 -0.305864,0.121269 1.409134,4.446839 1.714997,4.32557 v 0 c 0.420997,-0.134046 0.839793,-0.325935 1.275742,-0.39026 0.805362,-0.197163 1.607439,-0.455041 2.324878,-0.878163 0.707744,-0.247285 1.321416,-0.727951 1.936729,-1.144746 0.511296,-0.399995 0.999635,-0.831541 1.458489,-1.290947 0.48655,-0.523322 0.944094,-1.073897 1.243092,-1.730275 0.281207,-0.422807 0.490757,-0.888979 0.789408,-1.301977 0.508688,-0.733063 0.825322,-1.559412 0.971499,-2.439297 0.01958,-0.223745 0.03916,-0.447487 0.05875,-0.671232 -0.02066,0.0035 -0.06357,0.03128 -0.06203,0.01037 0.0035,-0.0477 0.05004,-0.08175 0.07049,-0.124991 0.123275,-0.260739 0.193556,-0.539552 0.298916,-0.807194 0.254346,-0.797064 0.401651,-1.620296 0.592156,-2.433519 0.06574,-0.443025 0.109625,-0.610935 0.0933,-1.075962 -0.01244,-0.353941 -0.140219,-0.698053 -0.148402,-1.052678 0.08807,-0.52863 0.18823,-1.055745 0.243922,-1.588902 0.110268,-1.11095 0.113805,-2.224613 -0.336717,-3.272201 C 59.15138,17.356732 59.230948,17.367198 59.103459,16.831139 59.001737,16.403432 58.819807,15.999955 58.657115,15.593864 58.506421,15.265166 58.43333,15.069009 58.251352,14.77956 57.885259,14.197264 57.401828,13.71339 56.986014,13.166151 56.43334,12.628572 55.791556,12.195753 55.2805,11.616302 54.970935,11.334892 54.656493,11.025076 54.310902,10.789093 53.924865,10.525489 53.459656,10.365076 53.052438,10.14204 51.897551,9.7802077 53.289635,10.240589 52.08909,9.76028 51.474405,9.5143591 50.763642,9.3213546 50.105321,9.2487338 50.004338,9.2330493 49.140272,9.097171 49.076933,9.0948048 c -0.863949,-0.032274 -1.737709,0.010559 -2.602973,0.00627 -0.430085,-0.029358 -0.858327,-0.069954 -1.287328,-0.1124387 -0.18516,-0.018336 -0.656653,0.1005276 -0.555423,-0.055593 0.111707,-0.1722839 0.775141,0.092245 0.614926,-0.036176 -0.175141,-0.1403866 -0.448866,-0.00708 -0.673299,-0.010613 -1.69513,0.06926 -3.387891,-0.084227 -5.084021,0.054193 -0.854652,0.1687076 -1.699954,0.3703833 -2.566813,0.4656116 -0.136676,0.017349 -0.27323,0.0357 -0.41003,0.052049 -0.114874,0.013729 -0.4595,0.021868 -0.344964,0.038183 0.290319,0.041356 1.169334,-0.00296 0.878938,0.037881 -4.85979,0.6833863 -0.124294,-0.2470687 -1.998647,0.1645089 -0.116451,0.025572 -0.234193,0.044849 -0.35129,0.067273 -0.637061,0.1465741 -1.295585,0.1250249 -1.932884,0.2811554 -0.844542,0.187543 -1.672244,0.479254 -2.468523,0.816984 -0.897975,0.103813 -1.572281,0.830126 -2.30351,1.291264 -0.390433,0.29606 -0.792813,0.603858 -1.136686,0.954788 -0.674764,0.688612 -0.170769,0.223148 -0.697296,0.853633 -0.08008,0.09589 -0.174641,0.178684 -0.261962,0.268026 -0.401745,0.432926 -0.775476,0.879362 -1.124878,1.352182 -0.672073,0.742118 -1.07041,1.348711 -1.236107,2.370764 -0.07358,0.784524 -0.101032,1.575275 -0.01455,2.360404 0.02959,0.141667 0.07346,0.397204 0.132943,0.546345 0.05788,0.145119 0.07887,-0.08352 0.07374,-0.09407 -0.0071,-0.01469 -0.01871,0.0268 -0.02807,0.0402 -0.03553,0.15929 -0.095,0.315078 -0.106589,0.477871 -0.08838,1.241094 0.401379,2.097419 1.438364,2.728849 0.387931,0.204592 0.759882,0.350023 1.177775,0.485807 0.459905,0.149433 0.918615,0.324901 1.400502,0.153484 0.27137,0.128186 2.084192,-3.709574 1.812822,-3.83776 z" />
    <path
       style="opacity:0.98;fill:#ff0000;stroke-width:0.264999;stroke-dasharray:6.36, 0.264999;paint-order:stroke fill markers"
       id="path3170"
       d="m 24.927292,21.008483 c -0.277598,0.494254 -0.342952,1.046124 -0.241432,1.602614 0.04272,0.234155 0.07164,0.477513 0.173401,0.692684 0.160054,0.33844 0.401633,0.631923 0.602449,0.947885 0.387372,0.287797 0.796864,0.680534 1.309818,0.751958 1.000428,0.1393 1.886637,0.02629 2.859798,-0.04849 0.119401,-0.0032 0.238797,-0.01254 0.358204,-0.0096 0.697132,0.01715 0.0819,0.04841 0.773459,0.02591 0.112075,-0.0036 0.447384,-0.01107 0.335722,-0.02134 -0.364379,-0.03351 -1.300158,-0.01496 -0.48794,-0.0271 0.720463,-0.06531 1.47696,0.003 2.182249,-0.103163 0.616201,-0.09272 1.541182,-0.868284 2.018649,-1.255617 1.083413,-0.94335 1.590069,-2.032851 2.068592,-3.344238 0.104934,-0.522444 0.276302,-1.027668 0.327017,-1.560788 0.0324,-0.340559 0.0042,-0.68286 0.02902,-1.023886 0.05936,-0.439711 -0.09418,-0.874626 -0.06361,-1.310514 0.105317,-0.636959 -0.06826,-1.38523 -0.383829,-1.947482 -0.111979,-0.199514 -0.257823,-0.378031 -0.386736,-0.567047 -0.450191,-0.481582 -0.982159,-0.900166 -1.628777,-1.072494 -0.326287,-0.08696 -0.201917,-0.08871 -0.384038,-0.07329 -0.529733,-0.155763 -1.043318,-0.351477 -1.573725,-0.50989 -0.836608,-0.144123 -0.488231,-0.102936 -1.908059,-0.119774 -0.239816,-0.02739 -0.471263,0.06953 -0.70857,0.06907 -0.254683,-5.03e-4 -0.507823,-0.04458 -0.762463,-0.04913 -0.792755,-10e-4 -1.574575,0.273899 -2.159985,0.826001 -0.192343,0.181398 -0.357545,0.389572 -0.536318,0.584358 -0.07452,0.10441 -0.149048,0.208821 -0.223572,0.313232 -0.155254,0.265262 3.596121,2.46089 3.751373,2.195628 v 0 c 0.02003,-0.02517 0.04007,-0.05034 0.0601,-0.07551 -0.07773,0.07711 -0.155471,0.15422 -0.233206,0.231331 -0.01984,0.03143 -0.03375,0.0675 -0.05951,0.0943 -0.05048,0.05254 -0.142274,0.07264 -0.166825,0.14124 -0.05282,0.147588 0.81062,0.06424 0.87312,0.07924 0.35189,-0.03652 0.688527,-0.128009 1.040825,-0.123754 0.07701,9.26e-4 0.307843,0.0087 0.231021,0.0032 -0.915408,-0.06486 -1.209902,0.02817 -0.774387,-0.08723 0.315438,-0.153486 0.730093,0.09371 1.036769,0.19101 0.707692,0.292807 0.09611,0.06993 0.475859,0.162844 0.07206,0.01763 0.152902,0.106138 0.213399,0.0632 0.04844,-0.03438 -0.05884,-0.104656 -0.07413,-0.162057 -0.0048,-0.01794 0.0217,-0.03518 0.01683,-0.05309 -0.01556,-0.05711 -0.05007,-0.107275 -0.0751,-0.160913 -0.0254,-0.07102 -0.06049,-0.139285 -0.07621,-0.213053 -0.0032,-0.01518 0.0079,-0.04734 0.02207,-0.04099 0.07513,0.03374 0.04778,0.159552 0.09081,0.22977 0.0098,0.01592 0.0361,0.0095 0.05415,0.01431 0.01762,0.0701 0.03523,0.140203 0.05284,0.210305 0.06309,0.263553 -0.198736,0.550308 -0.151064,0.832192 -0.01839,0.181537 -0.07433,0.991978 -0.154389,1.158338 -0.02604,0.0541 -0.07265,0.09559 -0.108982,0.143389 -0.276731,0.453801 -0.624986,0.844542 -0.927312,1.279939 -0.09452,0.136129 -0.174559,0.281968 -0.269489,0.417813 -0.0804,0.115052 -0.170714,0.222847 -0.256071,0.33427 -0.03538,0.06888 -0.144622,0.139447 -0.106133,0.206636 0.0436,0.07612 0.31115,-0.154071 0.334251,-0.156153 1.55493,-0.140166 1.265428,0.06036 0.506638,-0.09535 -1.246397,-0.0902 -2.503795,-0.146782 -3.737468,0.07478 -0.895294,0.125327 0.08783,-0.0069 -0.690142,0.08333 -0.08024,0.0093 -0.319972,0.02233 -0.239989,0.03363 1.433083,0.20247 0.712242,-0.196531 1.445079,0.654398 0.121391,0.248215 0.263644,0.487273 0.364176,0.744644 0.04075,0.104321 0.02784,0.2229 0.05609,0.331277 0.0029,0.01126 0.02901,0.02189 0.03312,0.011 0.08741,-0.231304 0.05231,-0.507739 0.0141,-0.743373 0.05519,-0.294265 -4.106354,-1.074671 -4.161537,-0.780406 z" />
    <path
       style="opacity:0.98;fill:#ff0000;stroke-width:0.264999;stroke-dasharray:6.36, 0.264999;paint-order:stroke fill markers"
       id="path3172"
       d="m 27.502886,36.440932 c -0.455228,1.173673 -0.219921,2.448682 -0.160426,3.668434 0.0748,1.534369 0.551366,2.967938 1.211893,4.338728 0.510466,0.822814 0.791903,1.754656 1.119703,2.659017 0.598758,1.437 1.678271,2.575558 2.714842,3.706942 0.500602,0.475457 0.91617,1.027245 1.430682,1.489255 0.381349,0.342435 0.82152,0.602578 1.265764,0.851842 0.0922,-0.230089 0.346784,0.364136 0.461772,0.235223 0.04684,-0.05252 -0.08007,-0.118145 -0.101283,-0.185246 -0.03667,-0.116006 0.06511,0.03074 0.08839,0.0619 -0.04823,-0.07689 -0.09645,-0.153773 -0.144682,-0.230661 0.339329,0.93477 1.098706,1.489527 1.8971,2.010148 0.228505,0.05105 0.431795,0.20814 0.650936,0.278754 0.01386,0.0045 -0.01789,-0.04937 -0.0046,-0.04349 0.170812,0.07531 0.301691,0.219985 0.450763,0.332357 0.134651,0.08121 0.269306,0.162419 0.403957,0.243628 0.01757,-0.0042 0.06206,0.003 0.05267,-0.01244 -0.03042,-0.04992 -0.09579,-0.06987 -0.13118,-0.116406 -0.165301,-0.217336 0.137602,0.100047 0.211278,0.152472 0.0869,0.07775 0.584829,0.476104 0.626292,0.4607 0.02389,-0.0089 -0.324329,-0.301344 0.109064,0.03492 1.554298,0.886616 1.109245,0.8949 3.543843,-1.771782 0.207846,-0.227658 -0.08654,-0.611362 -0.100635,-0.919306 -0.01098,-0.239826 0.04197,-0.480255 0.02561,-0.719772 -0.08525,-1.247632 -0.249716,-1.556192 -0.603602,-2.852076 -0.578771,-1.891379 -1.514356,-3.638077 -2.506758,-5.338696 -0.665652,-1.140691 -1.149633,-1.939915 -1.977175,-2.956971 -0.264962,-0.325641 -0.571037,-0.615553 -0.856557,-0.923329 -0.113644,-0.102259 -0.848828,-0.868408 -1.194387,-0.893765 -0.0902,-0.0066 -0.08991,0.175569 -0.17439,0.207851 -1.289307,0.49267 -2.575671,1.012764 -3.913045,1.35404 -0.112024,0.02858 -0.156916,-0.311934 -0.04578,-0.343813 1.303983,-0.374055 2.661756,-0.525576 3.992631,-0.788363 -0.176085,-0.43484 -0.281667,-0.902602 -0.455612,-1.338265 -0.09609,-0.240673 -0.328084,-0.681197 -0.445982,-0.911749 -0.44963,-0.676127 -0.851011,-1.389658 -1.403173,-1.990847 -0.163801,-0.178345 -0.347895,-0.337074 -0.51581,-0.511551 -0.09399,-0.09481 -0.187973,-0.189624 -0.281959,-0.284437 -0.01593,0.0031 -0.03821,0.02249 -0.04778,0.0094 -0.05195,-0.07111 -0.07668,-0.158607 -0.118031,-0.23636 -0.08502,-0.15988 -0.196255,-0.306054 -0.287311,-0.463521 -0.191603,-0.207328 -0.258588,-0.496012 -0.468236,-0.69228 -0.02466,-0.02307 0.06461,0.117308 0.04212,0.09212 -0.244636,-0.274138 -0.478289,-0.707404 0.03336,0.149367 0.06609,0.28253 0.236966,0.766993 0.154929,1.097053 -0.02983,0.120012 -0.08834,0.232936 -0.107283,0.355142 -0.0056,0.03637 0.03396,-0.07037 0.06597,-0.08853 0.01474,-0.0084 0.02896,0.01762 0.04343,0.02643 0.0058,0.05032 -0.03287,0.157194 0.01741,0.150966 0.09447,-0.0117 0.140648,-0.129942 0.221287,-0.180536 0.05902,-0.03703 0.13689,-0.03864 0.193278,-0.07956 0.111046,-0.08058 0.196102,-0.192424 0.301901,-0.279781 0.202226,-0.166974 0.259971,-0.179335 0.486806,-0.289687 0.217676,-0.195027 0.481899,-0.232238 0.730235,-0.367425 0.108566,-0.0591 0.207147,-0.136464 0.318976,-0.189126 0.14442,-0.06801 0.30907,-0.08013 0.462738,-0.123365 0.674116,0.01659 1.34743,-0.0264 2.023171,-0.01053 -1.94,0.0039 0.371903,-0.01815 0.723005,-0.01125 0.30588,0.09196 1.606304,-4.233844 1.300425,-4.325797 v 0 c -1.103847,-0.08759 -2.190951,-0.273783 -3.307001,-0.152342 -1.05742,0.07638 -2.128737,0.232936 -3.105028,0.664466 -0.826633,0.372079 -1.682345,0.706004 -2.386574,1.293488 -0.601699,0.541702 -1.211082,1.089146 -1.6233,1.7962 -0.40698,0.850977 -0.554654,1.328126 -0.263491,2.301571 0.822402,1.406559 0.249156,0.403468 0.169275,0.319746 -0.05464,-0.05727 0.08487,0.133774 0.122513,0.203399 0.01675,0.03097 -0.04294,-0.05617 -0.05966,-0.08715 -0.04182,-0.07748 -0.04394,-0.186309 -0.11557,-0.237511 -0.05384,-0.03849 0.03436,0.127831 0.05155,0.191746 0.01529,0.611283 0.566711,1.094825 0.708737,1.670021 0.09842,0.178237 0.38472,0.70581 0.497957,0.87421 0.346154,0.514778 0.799443,0.95903 1.179171,1.447461 0.242329,0.355357 0.518774,0.683345 0.763667,1.034886 0.07953,0.114165 0.134617,0.244266 0.215503,0.357473 0.0561,0.07852 0.101507,0.24383 0.193669,0.215207 0.08835,-0.02744 0.0045,-0.184962 0.0067,-0.277442 1.34861,-0.210711 2.729362,-0.271484 4.045828,-0.632134 0.14926,-0.04089 0.09623,-0.488583 -0.05603,-0.460883 -2.046089,0.372226 -4.305464,0.09274 -4.064167,2.121191 0.03218,0.27052 0.114816,0.532619 0.172226,0.79893 0.128418,0.397907 0.231026,0.805087 0.385257,1.193718 0.338386,0.852659 1.064493,2.231237 1.479746,3.004426 0.875982,1.631058 1.799164,3.240479 2.842781,4.771085 0.380664,0.524672 1.172496,1.629334 1.602065,2.175643 0.182944,0.232656 0.309803,0.540221 0.570471,0.680392 0.09689,0.0521 0.08778,-0.214739 0.17772,-0.278064 2.978881,-2.097299 1.960124,-2.508383 3.470413,-1.550279 0.03881,0.07582 0.0085,0.01061 -0.113818,-0.0976 -0.09967,-0.0882 -0.197152,-0.179417 -0.303417,-0.259557 -0.01902,-0.01437 -0.06931,-0.04468 -0.06841,-0.02085 0.0016,0.03853 0.05668,0.05548 0.07108,0.09124 0.0054,0.01342 -0.02702,-0.01024 -0.04053,-0.01535 -0.246271,-0.217954 -0.509275,-0.413423 -0.771678,-0.611759 -0.05265,-0.03979 -0.101489,-0.141992 -0.161499,-0.114533 -0.05561,0.02545 0.08727,0.08568 0.130908,0.128529 0.015,0.09826 0.01204,0.03626 -0.141269,-0.108447 -0.330756,-0.31219 -0.671584,-0.613416 -1.057836,-0.857211 -0.04609,-0.0066 -0.09608,-1.06e-4 -0.138264,-0.01979 -0.269173,-0.125634 -0.266102,-0.250319 -0.564591,-0.247187 -0.04367,5.3e-4 -0.09909,-0.04355 -0.130355,-0.01307 -0.03707,0.03614 -0.0099,0.103068 -0.01482,0.154604 -0.244655,-0.419888 -0.518763,-0.8118 -0.793692,-1.212911 -0.216122,-0.355383 -0.445693,-0.694634 -0.736248,-0.996749 -0.42387,-0.440732 -0.928711,-0.808836 -1.346575,-1.257593 -0.822273,-0.843865 -1.442885,-1.836997 -2.128653,-2.789783 -0.133691,-0.186857 -0.2604,-0.378907 -0.401068,-0.560567 -0.09012,-0.116383 -0.201441,-0.215382 -0.290531,-0.332558 -0.267838,-0.352266 -0.43742,-0.765021 -0.51725,-1.197782 -0.08307,-0.446701 -0.112969,-0.896106 -0.173644,-1.346284 -0.102827,-0.76294 -0.260127,-1.517637 -0.401608,-2.273864 -0.114184,-0.395727 -0.253558,-0.785394 -0.337569,-1.188606 -0.123658,-0.593505 -0.07675,-1.225299 -0.337399,-1.787739 0,-0.299551 -4.236277,-0.299551 -4.236277,0 z" />
    <path
       style="opacity:0.98;fill:#ff0000;stroke-width:0.264999;stroke-dasharray:6.36, 0.264999;paint-order:stroke fill markers"
       id="path3174"
       d="m 51.352194,60.952215 c -0.145047,-0.06081 -0.283983,-0.138989 -0.435142,-0.182439 -1.560025,-0.448418 -3.333178,-0.162189 -4.900551,-0.02328 -0.839272,0.342517 -1.655374,0.925957 -1.947535,1.860918 -0.280521,0.897721 0.02326,1.360225 0.114107,2.112785 -0.02598,0.732528 -0.01365,1.466414 0.255985,2.162416 0.06944,0.179258 0.161723,0.348813 0.242585,0.523221 0.223917,0.327973 0.315357,0.808731 0.671748,0.983917 0.837153,0.411504 1.785522,0.595445 2.714453,0.68058 0.353452,0.03239 0.686782,-0.191096 1.009285,-0.33931 0.814351,-0.374253 1.482847,-0.976836 2.111497,-1.596075 0.381923,-0.449048 0.812101,-0.913265 1.116809,-1.424501 0.370223,-0.621157 0.658016,-1.407009 0.811564,-2.113859 0.04834,-0.222536 0.06072,-0.451387 0.09108,-0.677082 0.04689,-1.178105 0.05028,-2.160045 -0.442783,-3.243802 -0.333375,-0.775835 -1.044218,-1.689307 -1.946097,-1.806123 -0.848151,-0.109855 -1.668971,-0.01042 -2.508883,0.01924 -0.611343,-0.120012 -0.147537,-0.01206 0.776277,-0.05947 0.08584,-0.0044 -0.171685,-0.01236 -0.256508,-0.02622 -0.379005,-0.06195 -0.750094,-0.140203 -1.132033,-0.188212 -0.697484,-0.0606 -1.406311,-0.0993 -2.104083,-0.01828 -0.286816,0.0333 -0.624134,0.313586 -0.854152,0.476152 0.33695,-0.339522 1.098955,-0.671632 -0.602649,0.482028 -0.05388,0.03653 0.02614,-0.202954 -0.03796,-0.191563 -0.08664,0.0154 -0.149696,0.09254 -0.224544,0.138811 -0.382831,0.303747 -0.767985,0.593926 -1.137218,0.91431 -0.47515,0.41852 -0.917988,0.861949 -1.228051,1.417589 -0.08396,0.282372 -0.279334,0.536642 -0.524399,0.97386 -0.307009,0.602446 -0.499451,1.247074 -0.597643,1.913223 -0.05465,0.412814 -0.06119,0.829713 -0.06339,1.245468 -0.0554,0.656791 0.02093,1.289709 0.185132,1.923931 0.323188,1.196586 1.17213,2.0384 2.135417,2.756985 0.667525,0.387019 1.250426,0.878586 1.842347,1.368676 0.723723,0.545912 1.566151,0.76966 2.430962,0.955114 0.88437,0.332341 1.443609,0.249934 2.469031,0.275847 0.511083,0.01291 1.020112,0.03902 1.529384,0.08292 1.668886,-0.250581 3.191452,-1.001903 4.343091,-2.248596 0.47566,-0.514919 0.704604,-0.945774 1.06317,-1.529535 0.142959,-0.270145 0.311883,-0.528071 0.428873,-0.810432 0.377032,-0.909968 0.52463,-2.114677 0.527765,-3.107518 0.05544,-0.205745 -0.05132,-0.443878 0.0028,-0.655619 0.0058,-0.02289 0.0433,-0.0245 0.05443,-0.04534 0.03345,-0.06261 0.05347,-0.131614 0.07606,-0.198911 0.114295,-0.340537 0.101862,-0.333978 0.180509,-0.69777 0.128543,-0.78785 0.176779,-1.578015 -0.0081,-2.358318 -0.262609,-0.96819 -0.624948,-1.615843 -1.462857,-2.177439 -0.384331,-0.29496 -0.775383,-0.579374 -1.184481,-0.843166 -0.235876,-0.132334 -0.441029,-0.312934 -0.673931,-0.449623 -0.04918,-0.02886 -0.10998,-0.03339 -0.1597,-0.0613 -0.297035,-0.166759 -0.563285,-0.416237 -0.903721,-0.489027 -0.06588,-0.144539 -0.23277,-0.06504 -0.332881,-0.129487 -0.353144,-0.227338 -0.646959,-0.494339 -1.027573,-0.69075 -0.183192,-0.09453 -0.380507,-0.158745 -0.570759,-0.238117 -0.6946,-0.301885 -1.442249,-0.307229 -2.180719,-0.362236 -0.626732,-0.09101 -1.207892,-0.06878 -1.861543,-0.05426 -0.0802,0.0019 -0.158686,0.02498 -0.238707,0.03067 -0.05536,0.0039 -0.113641,-0.01886 -0.166478,-0.0019 -0.173681,0.05578 -0.335002,0.144484 -0.502505,0.216728 -0.619217,0.262621 -1.083542,0.756296 -1.603092,1.165059 -0.568766,0.410292 -1.090612,0.89032 -1.588846,1.389126 -0.507429,0.511582 -0.854221,1.179523 -0.952334,1.898419 -0.03365,0.246587 -0.03537,0.496486 -0.05306,0.744731 0.01013,0.03646 0.02027,0.07292 0.03041,0.109382 0.01492,0.289832 4.113769,0.07877 4.098843,-0.211059 v 0 c 0.0072,-0.01138 0.01439,-0.02275 0.02162,-0.03412 -0.02043,0.177729 -0.04072,0.355471 -0.0613,0.533181 -0.0075,0.06485 -0.06384,0.143605 -0.02297,0.1945 0.02937,0.03656 0.07763,-0.05303 0.119264,-0.07461 0.221636,-0.114871 0.375287,-0.294812 0.534696,-0.492474 0.132466,-0.161605 0.249158,-0.335817 0.38323,-0.496091 0.216099,-0.258334 0.542185,-0.407252 0.763776,-0.66077 0.163539,-0.149908 0.323887,-0.300541 0.478644,-0.459349 0.0024,-0.0024 -0.06381,0.07318 0.01601,0.02688 -0.0678,0.03691 -0.150964,0.05407 -0.203391,0.110723 -0.03155,0.03409 0.181089,-0.03587 0.134641,-0.03592 -0.389771,-2.65e-4 -0.779576,0.0019 -1.169302,-0.004 -0.01302,-1.96e-4 -0.04826,-0.01942 -0.03641,-0.01405 0.02442,0.01103 0.04943,0.02074 0.07415,0.03111 0.568251,0.235937 1.156131,0.416774 1.765377,0.511016 0.08798,0.0056 0.175794,0.01532 0.263938,0.0168 0.08086,0.0013 0.164409,-0.02942 0.242466,-0.0083 0.129966,0.03521 0.239181,0.125156 0.365099,0.172855 0.07912,0.02997 0.169788,0.02408 0.246862,0.05896 0.163885,0.07418 0.293282,0.212601 0.46465,0.274498 0.104683,0.06248 0.201076,0.141607 0.314045,0.187428 0.04933,0.02 0.113556,-0.05645 0.157509,-0.02641 0.09949,0.068 0.176062,0.165724 0.274407,0.23537 0.04537,0.03213 0.101796,0.04473 0.152694,0.06709 0.06163,0.04957 0.123253,0.09914 0.18488,0.148709 0.607327,0.510434 1.284536,0.904941 1.99185,1.262163 0.02027,-0.03134 0.07687,-0.102515 0.05614,-0.146669 -0.08741,-0.186243 -0.226327,-0.345964 -0.308504,-0.534577 -0.287488,-0.659855 -0.106481,-0.676984 -0.186221,-0.238527 -0.01487,0.322942 0.08593,0.650052 -0.01246,0.949692 -0.236853,0.684245 -0.38744,1.382081 -0.483373,2.098612 -0.179094,0.584853 -0.195368,1.246841 -0.609743,1.724567 -0.85081,0.652505 -1.771414,1.219581 -2.662052,1.815018 -0.340894,0.0661 -0.683781,0.121693 -1.024482,0.18877 -0.110453,0.02175 -0.439267,0.05305 -0.329055,0.07598 0.673571,0.140121 1.089245,-0.244978 0.892464,0.189997 -0.33686,-0.170574 -0.674323,-0.352692 -1.03659,-0.466124 -0.0779,-0.02439 -0.162875,-0.02117 -0.240398,-0.04672 -0.111728,-0.03685 -0.216138,-0.09299 -0.324207,-0.139483 -0.07229,-0.006 -0.149067,0.0078 -0.216871,-0.01799 -0.160248,-0.06091 -0.407138,-0.307758 -0.520266,-0.401386 -0.263554,-0.218123 -0.527365,-0.430938 -0.774221,-0.66937 -0.127773,-0.09806 -0.502661,-0.399674 -0.661845,-0.469937 -0.03271,-0.01445 -0.07012,0.02899 -0.105093,0.02154 -0.105404,-0.02246 -0.165801,-0.146864 -0.289509,-0.09122 -0.08034,-0.25612 -0.0988,-0.562208 -0.23926,-0.794848 -0.01873,-0.03102 -0.07591,-0.02281 -0.09433,-0.05399 -0.04085,-0.06919 -0.0078,-0.165587 -0.05433,-0.23486 -0.122624,0.335616 0.251823,-0.33542 0.182618,-0.432956 0.03294,-0.105389 0.396648,-1.011749 0.165561,-0.80862 0.04521,-0.09374 0.09041,-0.187476 0.135622,-0.281215 -0.0089,0.01021 -0.03156,0.04343 -0.02686,0.03068 0.01913,-0.05189 0.105516,-0.193127 0.07087,-0.150019 -0.04773,0.05939 -0.173842,0.242832 -0.110924,0.199859 0.450982,-0.308039 0.07833,-0.271815 0.283419,-0.284547 0.246914,-0.251063 0.491201,-0.501837 0.709565,-0.779848 0.300564,-0.143526 0.547097,-0.395312 0.838133,-0.554154 0.228248,-0.146138 0.25944,-0.154276 0.504545,-0.413801 0.08899,-0.09423 0.354057,-0.365117 0.237942,-0.30753 -1.619662,0.803283 -0.531791,0.58193 -0.196799,0.250621 -0.05359,0.103799 -0.01815,0.04508 -0.233074,0.183404 -0.07713,0.04964 -0.147069,0.127603 -0.238237,0.137718 -0.987692,0.109577 -1.547087,-0.121769 -0.97501,0.08596 1.32121,0.455975 2.718707,0.761251 4.122314,0.477629 0.42486,-0.108162 0.597715,-0.15171 0.590748,-0.152702 -0.365934,-0.0521 -0.745768,0.0104 -1.106707,-0.06926 -0.116739,-0.02577 -0.190677,-0.146341 -0.27111,-0.234783 -0.577295,-0.634775 -0.459537,-0.456568 -0.692783,-1.058302 -0.06879,0.292466 -0.01273,0.611516 0.04938,0.901806 0.03721,0.173969 0.12293,0.336849 0.146671,0.513162 0.0038,0.02808 -0.01103,0.05558 -0.01654,0.08337 -0.06814,0.141976 -0.118282,0.293185 -0.198374,0.428781 -0.298818,0.505907 -0.756042,0.917758 -1.082604,1.404842 -0.114106,0.09683 -0.893021,0.704541 -0.912971,0.848143 -0.0055,0.03972 0.07414,0.03068 0.111842,0.04434 2.328656,0.843534 1.742988,0.09192 2.437712,1.447361 0.121994,-0.191919 0.08798,-0.103296 0.06073,-0.497478 -0.05767,-0.834377 -0.318929,-1.649079 -0.605562,-2.428552 -0.586174,-1.140402 -0.138425,-0.09895 -0.452771,0.681167 -0.149334,0.370602 -0.489829,0.631431 -0.729742,0.950942 -0.06387,0.08506 -0.221531,0.164004 -0.181425,0.262524 0.0447,0.109795 0.223917,0.07792 0.335875,0.116875 -0.246927,0.03622 -0.768096,-0.139404 -0.740783,0.108667 0.0276,0.250637 0.503764,0.02695 0.755907,0.02869 0.952458,0.0066 1.9328,-0.0619 2.828409,-0.406836 0.295648,0.07591 1.369171,-4.105188 1.073523,-4.181097 z" />
    <ellipse
       style="font-variation-settings:normal;opacity:1;vector-effect:none;fill:#0000ff;fill-opacity:1;fill-rule:evenodd;stroke-width:0.40848;stroke-linecap:butt;stroke-linejoin:miter;stroke-miterlimit:4;stroke-dasharray:none;stroke-dashoffset:0;stroke-opacity:1;-inkscape-stroke:none;stop-color:#000000;stop-opacity:1"
       id="path3220"
       cx="9.9247351"
       cy="12.18609"
       rx="3.8435137"
       ry="3.1412473" />
    <ellipse
       style="font-variation-settings:normal;opacity:1;vector-effect:none;fill:#000080;fill-opacity:1;fill-rule:evenodd;stroke-width:0.40848;stroke-linecap:butt;stroke-linejoin:miter;stroke-miterlimit:4;stroke-dasharray:none;stroke-dashoffset:0;stroke-opacity:1;-inkscape-stroke:none;stop-color:#000000;stop-opacity:1"
       id="path3244"
       cx="69.688583"
       cy="12.58974"
       rx="3.1639066"
       ry="3.4699616" />
    <ellipse
       style="font-variation-settings:normal;opacity:1;vector-effect:none;fill:#000080;fill-opacity:1;fill-rule:evenodd;stroke-width:0.40848;stroke-linecap:butt;stroke-linejoin:miter;stroke-miterlimit:4;stroke-dasharray:none;stroke-dashoffset:0;stroke-opacity:1;-inkscape-stroke:none;stop-color:#000000;stop-opacity:1"
       id="path3268"
       cx="13.104204"
       cy="59.839527"
       rx="4.523098"
       ry="3.7062423" />
    <ellipse
       style="font-variation-settings:normal;opacity:1;vector-effect:none;fill:#000080;fill-opacity:1;fill-rule:evenodd;stroke-width:0.40848;stroke-linecap:butt;stroke-linejoin:miter;stroke-miterlimit:4;stroke-dasharray:none;stroke-dashoffset:0;stroke-opacity:1;-inkscape-stroke:none;stop-color:#000000;stop-opacity:1"
       id="path3292"
       cx="64.902267"
       cy="45.476707"
       rx="4.9322524"
       ry="4.493185" />
  </g>
</svg>
